<svg width="39" height="24" viewBox="0 0 39 24" fill="none" xmlns="http://www.w3.org/2000/svg">
<path d="M14.2227 2.59521H24.7642V21.3141H14.2227V2.59521Z" fill="#FF5F00"/>
<path d="M14.8922 11.9549C14.8922 8.15161 16.6992 4.77816 19.4768 2.59533C17.4355 1.00789 14.8588 0.0488281 12.0477 0.0488281C5.38785 0.0488281 0 5.37339 0 11.9549C0 18.5363 5.38785 23.8609 12.0475 23.8609C14.8586 23.8609 17.4354 22.9018 19.4768 21.3143C16.6992 19.1646 14.8922 15.7581 14.8922 11.9549Z" fill="#EB001B"/>
<path d="M38.9875 11.9549C38.9875 18.5362 33.5997 23.8609 26.94 23.8609C24.1289 23.8609 21.5521 22.9018 19.5107 21.3143C22.3218 19.1316 24.0955 15.7581 24.0955 11.9549C24.0955 8.15161 22.2883 4.77816 19.5107 2.59533C21.552 1.00789 24.1289 0.0488281 26.94 0.0488281C33.5997 0.0488281 38.9875 5.40654 38.9875 11.9549Z" fill="#F79E1B"/>
<path d="M6.66035 14.6429V12.6587C6.66035 11.8978 6.19173 11.4019 5.3885 11.4019C4.98696 11.4019 4.55189 11.5342 4.25066 11.9641C4.0165 11.6003 3.68189 11.4019 3.17989 11.4019C2.84512 11.4019 2.51065 11.501 2.24281 11.8649V11.468H1.54004V14.6429H2.24281V12.8901C2.24281 12.328 2.54404 12.0633 3.01265 12.0633C3.48096 12.0633 3.71542 12.361 3.71542 12.8901V14.6429H4.41819V12.8901C4.41819 12.328 4.75266 12.0633 5.18773 12.0633C5.65635 12.0633 5.8905 12.361 5.8905 12.8901V14.6429H6.66035ZM17.0679 11.468H15.9302V10.509H15.2274V11.468H14.5916V12.0963H15.2273V13.5516C15.2273 14.2792 15.5285 14.7091 16.3317 14.7091C16.633 14.7091 16.9674 14.6099 17.2019 14.4776L17.001 13.8823C16.8002 14.0145 16.566 14.0477 16.3987 14.0477C16.064 14.0477 15.9302 13.8493 15.9302 13.5184V12.0963H17.0679V11.468ZM23.0248 11.4017C22.6233 11.4017 22.3556 11.6003 22.1882 11.8649V11.468H21.4854V14.6429H22.1882V12.8571C22.1882 12.328 22.4224 12.0303 22.8574 12.0303C22.9913 12.0303 23.1587 12.0634 23.2925 12.0964L23.4933 11.435C23.3594 11.4019 23.1587 11.4019 23.0248 11.4019M14.0227 11.7327C13.6879 11.5012 13.2194 11.402 12.7174 11.402C11.9143 11.402 11.379 11.7989 11.379 12.4272C11.379 12.9565 11.7805 13.254 12.4833 13.3533L12.8179 13.3865C13.186 13.4524 13.3868 13.5517 13.3868 13.7171C13.3868 13.9485 13.1191 14.114 12.6505 14.114C12.1819 14.114 11.8139 13.9485 11.5796 13.7833L11.245 14.3124C11.6131 14.5769 12.1151 14.7092 12.617 14.7092C13.554 14.7092 14.0896 14.2794 14.0896 13.684C14.0896 13.1218 13.6545 12.8241 12.9851 12.7249L12.6505 12.6918C12.3493 12.6587 12.1151 12.5927 12.1151 12.3943C12.1151 12.1627 12.3493 12.0304 12.7174 12.0304C13.1191 12.0304 13.5207 12.1957 13.7214 12.295L14.0227 11.7327ZM32.6964 11.402C32.2947 11.402 32.027 11.6005 31.8596 11.865V11.4682H31.1568V14.6431H31.8596V12.8572C31.8596 12.3281 32.0939 12.0304 32.5288 12.0304C32.6628 12.0304 32.8302 12.0636 32.964 12.0966L33.1648 11.4352C33.031 11.402 32.8302 11.402 32.6964 11.402ZM23.7276 13.0556C23.7276 14.0147 24.3968 14.7092 25.4344 14.7092C25.9028 14.7092 26.2374 14.6101 26.572 14.3455L26.2374 13.7833C25.9697 13.9817 25.702 14.0808 25.4008 14.0808C24.8319 14.0808 24.4304 13.684 24.4304 13.0556C24.4304 12.4604 24.8319 12.0634 25.4008 12.0304C25.702 12.0304 25.9697 12.1296 26.2374 12.3281L26.572 11.7659C26.2374 11.5012 25.9028 11.402 25.4344 11.402C24.3968 11.402 23.7276 12.0966 23.7276 13.0556ZM30.2199 13.0556V11.4682H29.5171V11.865C29.2828 11.5675 28.9482 11.402 28.5131 11.402C27.6096 11.402 26.9068 12.0966 26.9068 13.0556C26.9068 14.0147 27.6096 14.7092 28.5131 14.7092C28.9816 14.7092 29.3164 14.5439 29.5171 14.2462V14.6431H30.2199V13.0556ZM27.643 13.0556C27.643 12.4934 28.0111 12.0304 28.6134 12.0304C29.1824 12.0304 29.584 12.4604 29.584 13.0556C29.584 13.6179 29.1824 14.0808 28.6134 14.0808C28.0111 14.0477 27.643 13.6179 27.643 13.0556ZM19.2433 11.402C18.3062 11.402 17.6368 12.0634 17.6368 13.0556C17.6368 14.0478 18.306 14.7092 19.2767 14.7092C19.7451 14.7092 20.2137 14.5769 20.5819 14.2794L20.2471 13.7833C19.9794 13.9817 19.6448 14.114 19.3102 14.114C18.8751 14.114 18.44 13.9156 18.3396 13.3532H20.7157V13.0888C20.7493 12.0634 20.147 11.402 19.2433 11.402ZM19.2431 11.9973C19.678 11.9973 19.9794 12.262 20.0462 12.7581H18.373C18.4399 12.3281 18.7411 11.9973 19.2431 11.9973ZM36.6785 13.0556V10.2114H35.9757V11.865C35.7414 11.5675 35.4068 11.402 34.9717 11.402C34.0682 11.402 33.3654 12.0966 33.3654 13.0556C33.3654 14.0147 34.0682 14.7092 34.9717 14.7092C35.4404 14.7092 35.775 14.5439 35.9757 14.2462V14.6431H36.6785V13.0556ZM34.1017 13.0556C34.1017 12.4934 34.4697 12.0304 35.0722 12.0304C35.6411 12.0304 36.0427 12.4604 36.0427 13.0556C36.0427 13.6179 35.6411 14.0808 35.0722 14.0808C34.4697 14.0477 34.1017 13.6179 34.1017 13.0556ZM10.609 13.0556V11.4682H9.9062V11.865C9.67189 11.5675 9.33727 11.402 8.9022 11.402C7.99866 11.402 7.29589 12.0966 7.29589 13.0556C7.29589 14.0147 7.99866 14.7092 8.9022 14.7092C9.37081 14.7092 9.70543 14.5439 9.9062 14.2462V14.6431H10.609V13.0556ZM7.99866 13.0556C7.99866 12.4934 8.36681 12.0304 8.96912 12.0304C9.53804 12.0304 9.93973 12.4604 9.93973 13.0556C9.93973 13.6179 9.53804 14.0808 8.96912 14.0808C8.36681 14.0477 7.99866 13.6179 7.99866 13.0556Z" fill="white"/>
</svg>
