<svg width="137" height="139" viewBox="0 0 137 139" fill="none" xmlns="http://www.w3.org/2000/svg">
<path d="M68.8759 139C106.332 139 136.696 135.933 136.696 132.151C136.696 128.368 106.332 125.301 68.8759 125.301C31.4198 125.301 1.05566 128.368 1.05566 132.151C1.05566 135.933 31.4198 139 68.8759 139Z" fill="#EDF0FC"/>
<path d="M35.5414 109.567C33.2832 109.582 34.3596 116.906 34.3596 116.906C34.3596 116.906 31.0049 108.982 28.4243 108.697C25.8438 108.412 28.1099 115.322 28.1099 115.322C28.1099 115.322 21.4033 107.812 19.67 108.253C17.9367 108.694 21.113 112.884 21.113 112.884C21.113 112.884 9.99223 107.29 9.00901 109.413C8.02616 111.536 19.4855 116.398 19.4855 116.398C19.4855 116.398 14.2359 116.686 15.0209 118.294C15.8055 119.901 25.8712 120.157 25.8712 120.157C25.8712 120.157 19.1358 122.899 21.0227 124.682C22.9093 126.466 31.1214 123.899 31.1214 123.899C31.1214 123.899 24.8404 127.815 26.2892 129.548C27.7379 131.28 41.0259 124.239 41.0259 124.239C41.0259 124.239 37.8 109.55 35.5414 109.567Z" fill="#EB725F"/>
<path d="M36.2578 115.456L36.9183 118.019C37.1327 118.875 37.377 119.723 37.6065 120.574L38.2134 122.793L36.1304 121.795L32.7268 120.197C32.3303 119.15 31.9335 118.103 31.5069 117.067L30.8539 115.484C30.6219 114.962 30.4035 114.434 30.1599 113.917C30.3153 114.467 30.4959 115.009 30.6632 115.555L31.2075 117.179C31.5198 118.107 31.8555 119.027 32.1933 119.946L28.0913 118.02L25.8457 116.995C25.4047 116.254 24.9625 115.513 24.4938 114.788L23.7689 113.669C23.5141 113.304 23.2717 112.932 23.0062 112.573C23.1904 112.98 23.3979 113.373 23.5933 113.773L24.2182 114.95C24.5323 115.54 24.8632 116.12 25.1971 116.698L20.0119 114.332C17.3116 113.118 14.6084 111.911 11.8857 110.745C14.5361 112.066 17.2055 113.347 19.8781 114.621L25.0895 117.069C24.4078 117.195 23.7268 117.325 23.0493 117.475C22.1791 117.663 21.3099 117.858 20.4487 118.098C21.3398 118.028 22.223 117.911 23.1051 117.789C23.9851 117.671 24.8596 117.521 25.7338 117.371L27.9172 118.397L32.0645 120.29C31.1305 120.636 30.1973 120.985 29.2731 121.357C28.2086 121.781 27.1466 122.211 26.1004 122.685C27.2056 122.373 28.2953 122.018 29.3825 121.657C30.4621 121.303 31.5306 120.919 32.5991 120.535L35.9966 122.086L38.1066 123.029L36.0139 124.015C35.2138 124.396 34.4072 124.763 33.6136 125.158C32.0191 125.931 30.4276 126.712 28.8551 127.533C30.4995 126.868 32.1249 126.161 33.7474 125.447C34.5623 125.098 35.3642 124.722 36.1725 124.359L38.593 123.26L38.6074 123.254L40.0507 123.899C41.4084 124.49 42.76 125.094 44.1232 125.673C42.8 125.008 41.4649 124.368 40.1363 123.714L38.7103 123.031L38.7056 123.015L37.971 120.473C37.7227 119.626 37.4892 118.775 37.2263 117.933L36.4539 115.401C36.1819 114.561 35.9236 113.718 35.6394 112.881C35.8326 113.742 36.052 114.597 36.2578 115.456Z" fill="#F9AB43"/>
<g opacity="0.1">
<path d="M19.8947 112.292C16.9832 110.915 9.7917 107.724 9.00995 109.412C8.70595 110.069 9.59311 110.987 10.962 111.943C13.5378 111.475 16.621 111.582 19.8947 112.292Z" fill="#0046A0"/>
<path d="M28.0848 115.24C33.356 117.926 37.295 121.637 39.0376 125.256C40.2432 124.652 41.0267 124.238 41.0267 124.238C41.0267 124.238 37.8008 109.549 35.5422 109.565C33.284 109.581 34.3604 116.904 34.3604 116.904C34.3604 116.904 31.0057 108.981 28.4252 108.696C26.0083 108.429 27.842 114.472 28.0848 115.24Z" fill="#0046A0"/>
<path d="M20.8482 112.516C22.5725 112.947 24.3396 113.541 26.1064 114.307C26.7539 114.587 27.3839 114.885 27.9972 115.195C27.123 114.229 21.2734 107.844 19.671 108.252C18.2518 108.613 20.1229 111.486 20.8482 112.516Z" fill="#0046A0"/>
</g>
<path d="M115.529 110.473C115.76 108.226 108.363 108.496 108.363 108.496C108.363 108.496 116.605 106.027 117.171 103.494C117.736 100.96 110.62 102.457 110.62 102.457C110.62 102.457 118.819 96.6115 118.569 94.8404C118.32 93.0693 113.809 95.7682 113.809 95.7682C113.809 95.7682 120.585 85.3256 118.581 84.1164C116.579 82.9073 110.493 93.7665 110.493 93.7665C110.493 93.7665 110.78 88.517 109.097 89.1214C107.414 89.7257 106.059 99.7029 106.059 99.7029C106.059 99.7029 104.07 92.7081 102.091 94.3886C100.112 96.069 101.766 104.512 101.766 104.512C101.766 104.512 98.5596 97.8408 96.6791 99.0917C94.7987 100.343 100.345 114.321 100.345 114.321C100.345 114.321 115.298 112.72 115.529 110.473Z" fill="#EB725F"/>
<path d="M109.597 110.539L106.977 110.916C106.103 111.036 105.233 111.186 104.361 111.321L102.09 111.682L103.31 109.72L105.271 106.512C106.355 106.232 107.439 105.952 108.515 105.641L110.16 105.165C110.704 104.992 111.253 104.832 111.794 104.647C111.23 104.741 110.672 104.861 110.11 104.968L108.437 105.332C107.48 105.54 106.529 105.773 105.579 106.009L107.942 102.142L109.206 100.022C109.991 99.6647 110.775 99.3064 111.547 98.9197L112.738 98.3214C113.129 98.1081 113.526 97.908 113.912 97.6832C113.487 97.8221 113.074 97.9854 112.655 98.1354L111.416 98.6275C110.795 98.8751 110.183 99.1406 109.571 99.4093L112.491 94.5137C113.992 91.9623 115.488 89.407 116.945 86.8286C115.342 89.3185 113.777 91.8321 112.218 94.3493L109.215 99.2618C109.164 98.5703 109.11 97.8793 109.035 97.1896C108.943 96.3039 108.844 95.4185 108.699 94.5364C108.672 95.43 108.691 96.3208 108.717 97.2108C108.738 98.0983 108.791 98.9837 108.844 99.8694L107.586 101.928L105.25 105.843C105.009 104.877 104.764 103.911 104.495 102.952C104.19 101.847 103.879 100.745 103.523 99.6529C103.712 100.786 103.946 101.907 104.186 103.028C104.419 104.14 104.684 105.244 104.949 106.348L103.036 109.556L101.867 111.55L101.116 109.362C100.825 108.524 100.548 107.683 100.243 106.851C99.6479 105.181 99.0464 103.514 98.4014 101.861C98.8834 103.569 99.4087 105.262 99.9404 106.952C100.198 107.8 100.485 108.639 100.757 109.482L101.585 112.008L101.59 112.023L100.791 113.387C100.055 114.672 99.3072 115.95 98.5827 117.241C99.3882 115.999 100.171 114.742 100.965 113.493L101.8 112.15L101.817 112.147L104.424 111.695C105.293 111.541 106.164 111.402 107.03 111.232L109.631 110.741C110.496 110.563 111.363 110.398 112.225 110.207C111.346 110.304 110.473 110.429 109.597 110.539Z" fill="#F9AB43"/>
<g opacity="0.1">
<path d="M114.528 94.6208C116.216 91.8773 120.174 85.0779 118.581 84.1163C117.962 83.7425 116.952 84.5239 115.852 85.7802C116.036 88.3916 115.592 91.4445 114.528 94.6208Z" fill="#0046A0"/>
<path d="M110.702 102.44C107.457 107.386 103.338 110.896 99.5498 112.232C100.017 113.496 100.345 114.321 100.345 114.321C100.345 114.321 115.297 112.72 115.528 110.473C115.76 108.226 108.362 108.496 108.362 108.496C108.362 108.496 116.605 106.027 117.17 103.494C117.7 101.121 111.493 102.283 110.702 102.44Z" fill="#0046A0"/>
<path d="M114.201 95.5443C113.584 97.211 112.801 98.903 111.847 100.575C111.497 101.188 111.132 101.782 110.757 102.357C111.813 101.594 118.799 96.4775 118.569 94.8402C118.365 93.3901 115.305 94.9359 114.201 95.5443Z" fill="#0046A0"/>
</g>
<path d="M15.7453 87.8484C16.1526 88.7863 16.6609 89.6878 17.1786 90.5678C18.4733 92.7695 19.9782 94.8478 21.6496 96.7786C23.933 99.4167 26.5502 101.768 29.4603 103.696C32.9388 106.002 36.8314 107.66 40.9128 108.537C45.963 109.621 51.1964 109.494 56.2542 108.525C56.9892 108.384 57.7206 108.225 58.4484 108.051C58.6747 107.997 58.5596 107.653 58.334 107.707C53.1665 108.942 47.7733 109.351 42.5141 108.473C38.3524 107.778 34.3548 106.283 30.7515 104.09C27.7338 102.253 25.0126 99.9477 22.6318 97.342C20.838 95.3784 19.2317 93.2393 17.8427 90.9714C17.207 89.9332 16.6418 88.8136 16.1101 87.7818C16.1022 87.7663 16.0957 87.7502 16.0889 87.7343C15.9971 87.5221 15.6521 87.634 15.7453 87.8484Z" fill="#6E7FDD"/>
<path d="M17.6159 91.292C16.7219 90.7448 16.1124 90.0796 15.5746 89.3849C15.0508 88.6844 14.6317 87.9405 14.3065 87.1576C13.9798 86.3755 13.7492 85.5535 13.624 84.6876C13.5121 83.8162 13.474 82.9147 13.7222 81.894C14.6194 82.4398 15.23 83.1046 15.7674 83.7993C16.2912 84.4998 16.7096 85.2441 17.032 86.028C17.3558 86.8116 17.5853 87.634 17.7108 88.4995C17.8213 89.3716 17.8609 90.2728 17.6159 91.292Z" fill="#6E7FDD"/>
<path d="M14.0576 82.7041C14.3652 83.3294 14.6509 83.9636 14.9329 84.5993C15.2157 85.2346 15.4801 85.8779 15.7549 86.5164C16.0133 87.1622 16.2802 87.804 16.5302 88.453C16.7803 89.102 17.027 89.7524 17.2515 90.4119C16.9436 89.787 16.6583 89.1524 16.3759 88.517C16.0938 87.8814 15.8283 87.2388 15.5546 86.5995C15.2966 85.9538 15.029 85.312 14.7793 84.663C14.5293 84.014 14.2825 83.3635 14.0576 82.7041Z" fill="#0046A0"/>
<path opacity="0.1" d="M15.7672 83.7993C15.2301 83.1043 14.6193 82.4398 13.722 81.894C13.6897 82.0272 13.6627 82.1577 13.6396 82.2869C14.176 82.72 14.5995 83.2 14.983 83.6964C15.5068 84.3969 15.9252 85.1412 16.2475 85.9251C16.5713 86.7087 16.8008 87.5311 16.9264 88.3966C17.0228 89.1536 17.0645 89.9332 16.9138 90.7923C17.1286 90.9667 17.3595 91.1344 17.616 91.2912C17.861 90.2721 17.8215 89.3709 17.7103 88.4995C17.5851 87.634 17.3556 86.8116 17.0314 86.028C16.7094 85.2441 16.2911 84.5001 15.7672 83.7993Z" fill="#0046A0"/>
<path d="M19.4835 93.9843C18.9179 93.1018 18.6596 92.2377 18.4783 91.3779C18.3125 90.5191 18.2596 89.6669 18.3085 88.8204C18.3556 87.9739 18.5067 87.1335 18.7719 86.2999C19.0514 85.4671 19.4101 84.6389 20.0785 83.8291C20.6476 84.7116 20.9074 85.5761 21.0876 86.4359C21.2535 87.2946 21.3053 88.1469 21.2535 88.993C21.2031 89.8392 21.0509 90.6796 20.7861 91.5131C20.5059 92.346 20.1483 93.1741 19.4835 93.9843Z" fill="#6E7FDD"/>
<path d="M20.0265 84.7046C20.0305 85.4014 20.0107 86.0965 19.9877 86.7915C19.965 87.4866 19.9225 88.1806 19.8909 88.8752C19.8416 89.5689 19.802 90.2632 19.7441 90.9561C19.6858 91.6493 19.6243 92.3422 19.5387 93.0337C19.5344 92.3368 19.5542 91.6414 19.5772 90.9464C19.6006 90.2513 19.6419 89.5573 19.6743 88.8626C19.724 88.169 19.7632 87.4747 19.8215 86.7818C19.8794 86.0889 19.9409 85.396 20.0265 84.7046Z" fill="#0046A0"/>
<path opacity="0.1" d="M21.0866 86.4359C20.9064 85.5761 20.6466 84.7119 20.0775 83.8291C19.9904 83.9345 19.9091 84.0406 19.8321 84.1468C20.1257 84.7706 20.2973 85.3872 20.4261 86.0013C20.5919 86.86 20.6437 87.7123 20.5919 88.5585C20.5416 89.4046 20.3894 90.245 20.1246 91.0786C19.8811 91.8017 19.5789 92.5215 19.0684 93.2288C19.1856 93.4796 19.3202 93.731 19.4824 93.9843C20.1473 93.1741 20.5049 92.346 20.7851 91.5131C21.0499 90.6796 21.2021 89.8392 21.2524 88.993C21.3042 88.1469 21.2524 87.2946 21.0866 86.4359Z" fill="#0046A0"/>
<path d="M19.4193 93.8112C18.4516 94.2131 17.555 94.3156 16.6769 94.343C15.8023 94.3552 14.954 94.2577 14.1294 94.0606C13.3045 93.8656 12.5037 93.5691 11.7295 93.1619C10.9586 92.7406 10.2067 92.2416 9.52637 91.4415C10.4952 91.0361 11.3917 90.9325 12.2699 90.9059C13.1444 90.8933 13.9927 90.9922 14.8166 91.1919C15.6408 91.3901 16.4412 91.6872 17.2154 92.0945C17.9857 92.5168 18.7383 93.0144 19.4193 93.8112Z" fill="#6E7FDD"/>
<path d="M10.3789 91.6455C11.0657 91.7639 11.7467 91.9056 12.4266 92.0506C13.1069 92.1952 13.7826 92.3589 14.4611 92.5118C15.1352 92.682 15.8116 92.8431 16.4836 93.0219C17.1556 93.2011 17.8269 93.3831 18.4925 93.5893C17.8057 93.4713 17.1247 93.3295 16.4444 93.1845C15.7641 93.0392 15.0881 92.8766 14.41 92.723C13.7358 92.5521 13.0595 92.3916 12.3874 92.2125C11.7158 92.0333 11.0445 91.8509 10.3789 91.6455Z" fill="#0046A0"/>
<path opacity="0.1" d="M12.2699 90.9058C11.3917 90.9321 10.4952 91.036 9.52637 91.4415C9.61487 91.5458 9.70481 91.6444 9.79582 91.739C10.4614 91.5595 11.0985 91.4987 11.7259 91.48C12.6005 91.4674 13.4488 91.5663 14.2726 91.766C15.0968 91.9642 15.8973 92.2617 16.6715 92.6686C17.3406 93.0352 17.9961 93.4594 18.603 94.086C18.8703 94.0148 19.1416 93.9263 19.4197 93.8108C18.7386 93.014 17.9864 92.5164 17.2158 92.0941C16.4416 91.6868 15.6411 91.3897 14.8169 91.1914C13.9927 90.9921 13.1444 90.8936 12.2699 90.9058Z" fill="#0046A0"/>
<path d="M23.5076 98.4514C22.8104 97.669 22.4194 96.8559 22.1053 96.0353C21.8067 95.2133 21.6207 94.3797 21.5358 93.5361C21.4495 92.6928 21.4664 91.8391 21.5973 90.9743C21.7423 90.108 21.9668 89.2338 22.4996 88.3286C23.2004 89.1107 23.5925 89.9238 23.9059 90.7444C24.2048 91.5664 24.3898 92.4 24.4711 93.244C24.5542 94.0876 24.5362 94.9413 24.4056 95.8061C24.2599 96.6728 24.0368 97.547 23.5076 98.4514Z" fill="#6E7FDD"/>
<path d="M22.5869 89.2012C22.7006 89.8887 22.7902 90.5783 22.8762 91.2687C22.9629 91.9587 23.0301 92.6509 23.1078 93.3416C23.1683 94.0345 23.2381 94.726 23.2895 95.4196C23.341 96.1132 23.3892 96.8071 23.4129 97.5033C23.2992 96.8158 23.2093 96.1261 23.123 95.4361C23.037 94.7461 22.969 94.0539 22.8916 93.3628C22.8319 92.6699 22.7614 91.9785 22.7103 91.2845C22.6592 90.5916 22.6114 89.8977 22.5869 89.2012Z" fill="#0046A0"/>
<path opacity="0.1" d="M23.9064 90.7449C23.5934 89.9243 23.2009 89.1112 22.5001 88.3291C22.4307 88.4471 22.367 88.5644 22.3076 88.6813C22.6954 89.2512 22.962 89.8332 23.1854 90.4193C23.484 91.2413 23.6693 92.0749 23.751 92.9189C23.8341 93.7625 23.8161 94.6162 23.6855 95.4811C23.5585 96.2333 23.3732 96.9917 22.98 97.7706C23.1351 97.9997 23.3077 98.2271 23.5078 98.4516C24.037 97.5472 24.26 96.6729 24.4061 95.8063C24.5367 94.9414 24.555 94.0877 24.4716 93.2441C24.3902 92.4005 24.205 91.5669 23.9064 90.7449Z" fill="#0046A0"/>
<path d="M23.4167 98.2906C22.5237 98.8396 21.6549 99.0813 20.7919 99.2465C19.9299 99.3958 19.0769 99.4328 18.2315 99.3681C17.3861 99.3051 16.5489 99.1382 15.7204 98.8576C14.893 98.5626 14.0716 98.1881 13.2744 97.5045C14.1673 96.9519 15.0365 96.7087 15.8996 96.5447C16.7615 96.395 17.6145 96.3591 18.4596 96.4271C19.3046 96.4933 20.1422 96.6613 20.9703 96.9419C21.7978 97.2372 22.6191 97.6107 23.4167 98.2906Z" fill="#6E7FDD"/>
<path d="M14.1484 97.5718C14.8453 97.5808 15.54 97.6135 16.2347 97.6502C16.9294 97.6862 17.6222 97.7416 18.3162 97.7862C19.0087 97.8484 19.702 97.9013 20.3938 97.9722C21.0856 98.0434 21.7771 98.1179 22.4671 98.2168C21.7702 98.2082 21.0755 98.1751 20.3809 98.1387C19.6862 98.1024 18.9933 98.0477 18.2993 98.0024C17.6068 97.9394 16.9135 97.8876 16.2217 97.8161C15.5299 97.7448 14.8381 97.6704 14.1484 97.5718Z" fill="#0046A0"/>
<path opacity="0.1" d="M15.8996 96.5438C15.0365 96.7079 14.1673 96.9511 13.2744 97.5037C13.3784 97.5925 13.4827 97.676 13.5874 97.7551C14.2166 97.4734 14.8365 97.3134 15.4527 97.1961C16.3147 97.0464 17.1677 97.0104 18.0128 97.0784C18.8578 97.1446 19.695 97.3126 20.5235 97.5932C21.2419 97.8505 21.9557 98.166 22.6536 98.6898C22.9065 98.5772 23.1605 98.4473 23.4167 98.2897C22.6191 97.6098 21.7978 97.2367 20.9703 96.9406C20.1418 96.66 19.3046 96.492 18.4596 96.4258C17.6145 96.3582 16.7615 96.3942 15.8996 96.5438Z" fill="#0046A0"/>
<path d="M28.324 102.635C27.5109 101.974 26.9957 101.233 26.555 100.473C26.1295 99.7092 25.8129 98.9159 25.5952 98.0968C25.3758 97.278 25.2567 96.4325 25.248 95.5576C25.2534 94.6791 25.3358 93.7804 25.7175 92.8022C26.5338 93.4628 27.0504 94.2028 27.4904 94.9633C27.9164 95.7274 28.2319 96.5207 28.4466 97.3409C28.6632 98.1605 28.7812 99.0062 28.7898 99.8808C28.7834 100.76 28.7024 101.658 28.324 102.635Z" fill="#6E7FDD"/>
<path d="M25.9414 93.6499C26.163 94.3104 26.3612 94.9774 26.5562 95.6448C26.7516 96.3121 26.9282 96.9848 27.1153 97.6544C27.2851 98.3285 27.4643 99.0006 27.6258 99.6769C27.787 100.354 27.9449 101.031 28.0794 101.715C27.8575 101.054 27.6592 100.387 27.4643 99.7197C27.2693 99.052 27.0919 98.3796 26.9056 97.7098C26.7361 97.0352 26.5566 96.3635 26.3958 95.6872C26.2342 95.0112 26.0763 94.3338 25.9414 93.6499Z" fill="#0046A0"/>
<path opacity="0.1" d="M27.4901 94.9633C27.0505 94.2028 26.5335 93.4628 25.7172 92.8022C25.6676 92.9296 25.6233 93.0559 25.583 93.1807C26.0568 93.6815 26.4122 94.2136 26.7267 94.7568C27.1526 95.5209 27.4681 96.3142 27.6829 97.1344C27.8995 97.954 28.0175 98.7997 28.0261 99.6743C28.0207 100.437 27.9581 101.216 27.6941 102.047C27.8836 102.248 28.0901 102.445 28.3236 102.635C28.7021 101.658 28.783 100.759 28.7895 99.8808C28.7809 99.0062 28.6629 98.1605 28.4463 97.3409C28.2312 96.521 27.9157 95.7274 27.4901 94.9633Z" fill="#0046A0"/>
<path d="M28.2073 102.489C27.4133 103.173 26.5938 103.551 25.7681 103.851C24.941 104.136 24.1046 104.308 23.2599 104.379C22.4152 104.451 21.5622 104.42 20.6995 104.274C19.8357 104.115 18.9655 103.876 18.0693 103.328C18.863 102.64 19.6825 102.261 20.5081 101.962C21.3352 101.677 22.1716 101.506 23.0167 101.439C23.8614 101.37 24.7148 101.402 25.5775 101.547C26.4412 101.708 27.3115 101.945 28.2073 102.489Z" fill="#6E7FDD"/>
<path d="M18.9434 103.256C19.6327 103.154 20.3237 103.076 21.0152 103.001C21.7066 102.926 22.3995 102.87 23.0917 102.804C23.7853 102.755 24.4782 102.697 25.1725 102.657C25.8669 102.617 26.5616 102.581 27.258 102.568C26.5688 102.671 25.8777 102.749 25.1862 102.823C24.4948 102.898 23.8019 102.954 23.1097 103.02C22.4161 103.068 21.7232 103.127 21.0289 103.167C20.3345 103.207 19.6398 103.243 18.9434 103.256Z" fill="#0046A0"/>
<path opacity="0.1" d="M20.5081 101.963C19.6821 102.262 18.863 102.641 18.0693 103.328C18.1863 103.4 18.3025 103.465 18.4183 103.527C18.9946 103.148 19.581 102.892 20.1707 102.678C20.9978 102.393 21.8342 102.222 22.6793 102.155C23.5243 102.086 24.3777 102.118 25.24 102.263C25.9901 102.402 26.7452 102.601 27.5176 103.007C27.7493 102.856 27.9795 102.687 28.2073 102.49C27.3115 101.946 26.4412 101.709 25.5775 101.548C24.7148 101.403 23.8614 101.371 23.0167 101.44C22.1716 101.507 21.3352 101.678 20.5081 101.963Z" fill="#0046A0"/>
<path d="M34.3321 106.105C33.4076 105.611 32.7596 104.983 32.1815 104.322C31.6174 103.653 31.1548 102.936 30.7839 102.173C30.4115 101.412 30.1327 100.605 29.9568 99.7478C29.7935 98.8848 29.7021 97.9868 29.8895 96.9536C30.8173 97.4454 31.4663 98.0728 32.0437 98.7348C32.6082 99.4032 33.0698 100.121 33.4378 100.885C33.8073 101.648 34.0853 102.455 34.2616 103.312C34.4235 104.176 34.5163 105.073 34.3321 106.105Z" fill="#6E7FDD"/>
<path d="M30.2734 97.7427C30.6174 98.3485 30.9401 98.9648 31.2592 99.5828C31.579 100.201 31.8812 100.827 32.1931 101.448C32.4892 102.077 32.7935 102.703 33.0817 103.335C33.3695 103.969 33.6544 104.603 33.9174 105.248C33.5731 104.642 33.2508 104.026 32.9313 103.408C32.6122 102.79 32.3093 102.165 31.9977 101.543C31.7024 100.914 31.397 100.289 31.1095 99.6555C30.8213 99.0223 30.5368 98.3877 30.2734 97.7427Z" fill="#0046A0"/>
<path opacity="0.1" d="M32.0443 98.7348C31.4669 98.0728 30.8179 97.4454 29.89 96.9536C29.8656 97.0882 29.8465 97.2202 29.8311 97.3508C30.3923 97.7516 30.843 98.2056 31.2553 98.6786C31.8198 99.3471 32.2814 100.065 32.6494 100.829C33.0189 101.592 33.2969 102.399 33.4732 103.256C33.6143 104.006 33.702 104.782 33.6024 105.648C33.8269 105.81 34.0675 105.963 34.333 106.105C34.5172 105.073 34.4244 104.176 34.2622 103.312C34.0859 102.455 33.8082 101.648 33.4383 100.885C33.0703 100.121 32.6087 99.4032 32.0443 98.7348Z" fill="#0046A0"/>
<path d="M34.193 105.984C33.5447 106.808 32.813 107.335 32.06 107.788C31.3027 108.226 30.5152 108.556 29.6993 108.787C28.8841 109.02 28.0408 109.152 27.1662 109.175C26.2877 109.184 25.388 109.116 24.4033 108.75C25.0505 107.923 25.7819 107.395 26.5352 106.942C27.2922 106.504 28.0804 106.176 28.897 105.948C29.713 105.718 30.5566 105.586 31.4312 105.563C32.31 105.555 33.2098 105.622 34.193 105.984Z" fill="#6E7FDD"/>
<path d="M25.2471 108.512C25.904 108.28 26.5674 108.07 27.2318 107.865C27.896 107.658 28.5655 107.471 29.2321 107.273C29.9034 107.092 30.5722 106.902 31.246 106.73C31.9198 106.558 32.5947 106.389 33.2761 106.243C32.6192 106.476 31.9558 106.685 31.2917 106.891C30.6272 107.097 29.9581 107.285 29.2911 107.482C28.6194 107.662 27.951 107.853 27.2768 108.025C26.603 108.197 25.9281 108.366 25.2471 108.512Z" fill="#0046A0"/>
<path opacity="0.1" d="M26.5352 106.942C25.7819 107.395 25.0505 107.923 24.4033 108.75C24.5314 108.798 24.6584 108.84 24.7839 108.878C25.2768 108.396 25.8031 108.032 26.3413 107.709C27.0983 107.271 27.8865 106.942 28.7031 106.714C29.5191 106.484 30.3627 106.353 31.2373 106.33C32.0003 106.323 32.7792 106.373 33.6149 106.623C33.8131 106.43 34.007 106.22 34.193 105.984C33.2098 105.621 32.31 105.555 31.4315 105.563C30.557 105.586 29.7133 105.718 28.8974 105.948C28.0804 106.176 27.2922 106.504 26.5352 106.942Z" fill="#0046A0"/>
<path d="M40.0014 108.223C39.0427 107.801 38.3494 107.223 37.7234 106.606C37.1108 105.982 36.5956 105.301 36.1689 104.569C35.7404 103.837 35.4019 103.053 35.1623 102.212C34.935 101.363 34.7767 100.475 34.886 99.4302C35.848 99.8511 36.5423 100.428 37.1676 101.045C37.7806 101.669 38.2947 102.351 38.7189 103.085C39.1445 103.818 39.4819 104.602 39.7219 105.444C39.9482 106.293 40.1079 107.181 40.0014 108.223Z" fill="#6E7FDD"/>
<path d="M35.3281 100.189C35.7163 100.767 36.0843 101.358 36.4491 101.95C36.8143 102.542 37.1625 103.144 37.5201 103.74C37.8622 104.345 38.2126 104.946 38.5476 105.555C38.8822 106.165 39.2135 106.777 39.5243 107.4C39.1358 106.822 38.7678 106.231 38.403 105.639C38.0385 105.047 37.6896 104.446 37.3327 103.849C36.9909 103.243 36.6398 102.643 36.3056 102.033C35.9706 101.424 35.639 100.812 35.3281 100.189Z" fill="#0046A0"/>
<path opacity="0.1" d="M37.1672 101.046C36.5419 100.429 35.8476 99.8516 34.8856 99.4307C34.8712 99.5667 34.8622 99.7001 34.8564 99.8311C35.4461 100.189 35.9296 100.608 36.3764 101.048C36.9894 101.673 37.5035 102.354 37.9277 103.088C38.3533 103.822 38.6907 104.606 38.9307 105.447C39.1275 106.184 39.2732 106.951 39.2386 107.823C39.4746 107.967 39.7261 108.102 40.0013 108.223C40.1078 107.181 39.9481 106.293 39.7214 105.444C39.4815 104.603 39.144 103.819 38.7184 103.085C38.2943 102.352 37.7802 101.67 37.1672 101.046Z" fill="#0046A0"/>
<path d="M39.8523 108.113C39.2677 108.983 38.5773 109.563 37.8603 110.071C37.1383 110.565 36.377 110.952 35.5812 111.244C34.7858 111.537 33.9548 111.732 33.0845 111.821C32.2092 111.895 31.3066 111.895 30.2979 111.604C30.8814 110.731 31.5714 110.149 32.2884 109.642C33.0104 109.148 33.772 108.762 34.5689 108.473C35.3654 108.183 36.1968 107.988 37.067 107.9C37.9423 107.826 38.8446 107.825 39.8523 108.113Z" fill="#6E7FDD"/>
<path d="M31.1221 111.303C31.7599 111.023 32.4057 110.764 33.0529 110.509C33.6997 110.254 34.3534 110.017 35.0035 109.769C35.6593 109.539 36.3123 109.299 36.9714 109.077C37.6304 108.855 38.2906 108.636 38.9594 108.439C38.3219 108.72 37.6761 108.979 37.0289 109.234C36.3817 109.489 35.7284 109.727 35.0783 109.973C34.4221 110.203 33.7695 110.443 33.1104 110.665C32.451 110.888 31.7905 111.107 31.1221 111.303Z" fill="#0046A0"/>
<path opacity="0.1" d="M32.2884 109.642C31.571 110.15 30.8814 110.732 30.2979 111.604C30.4295 111.642 30.5587 111.675 30.6868 111.703C31.1422 111.186 31.6401 110.783 32.1524 110.421C32.8744 109.928 33.636 109.541 34.4329 109.252C35.2294 108.962 36.0608 108.768 36.931 108.679C37.6912 108.615 38.4719 108.607 39.3241 108.794C39.5076 108.586 39.6846 108.363 39.8526 108.113C38.8449 107.826 37.9427 107.827 37.0674 107.9C36.1971 107.989 35.3657 108.183 34.5692 108.474C33.7717 108.762 33.0104 109.149 32.2884 109.642Z" fill="#0046A0"/>
<path d="M47.2558 109.163C46.2286 108.955 45.4282 108.539 44.6846 108.07C43.9525 107.592 43.3038 107.036 42.73 106.412C42.1551 105.789 41.6569 105.096 41.2428 104.325C40.8391 103.545 40.4945 102.711 40.3779 101.667C41.4079 101.873 42.2091 102.288 42.952 102.757C43.6841 103.236 44.3324 103.791 44.9037 104.418C45.4764 105.043 45.9739 105.737 46.388 106.507C46.7906 107.288 47.1367 108.121 47.2558 109.163Z" fill="#6E7FDD"/>
<path d="M40.9707 102.313C41.4736 102.795 41.9593 103.293 42.4425 103.794C42.9256 104.294 43.3947 104.807 43.8714 105.313C44.3351 105.831 44.8061 106.343 45.2633 106.867C45.7206 107.391 46.1753 107.918 46.612 108.461C46.1087 107.979 45.6231 107.481 45.1403 106.98C44.6575 106.479 44.188 105.967 43.7117 105.46C43.2483 104.942 42.777 104.431 42.3201 103.906C41.8625 103.382 41.4078 102.856 40.9707 102.313Z" fill="#0046A0"/>
<path opacity="0.1" d="M42.952 102.756C42.2091 102.288 41.4076 101.872 40.3779 101.667C40.393 101.803 40.4125 101.935 40.4351 102.064C41.0874 102.287 41.6497 102.593 42.1803 102.928C42.9124 103.407 43.5607 103.963 44.132 104.589C44.7047 105.214 45.2023 105.908 45.6163 106.678C45.966 107.357 46.2725 108.075 46.4254 108.933C46.687 109.024 46.9615 109.102 47.2561 109.162C47.137 108.121 46.7913 107.287 46.3884 106.506C45.9743 105.736 45.4768 105.042 44.904 104.417C44.332 103.791 43.6841 103.235 42.952 102.756Z" fill="#0046A0"/>
<path d="M47.087 109.085C46.7021 110.06 46.1517 110.775 45.5602 111.424C44.9601 112.061 44.2996 112.602 43.5844 113.057C42.8703 113.514 42.1001 113.883 41.2687 114.155C40.4297 114.415 39.548 114.608 38.5 114.539C38.8831 113.562 39.4325 112.846 40.0247 112.197C40.6244 111.56 41.2856 111.02 42.0026 110.567C42.7185 110.113 43.4891 109.746 44.3201 109.473C45.1602 109.214 46.0412 109.019 47.087 109.085Z" fill="#6E7FDD"/>
<path d="M39.2402 114.069C39.8033 113.659 40.3789 113.268 40.9563 112.881C41.5337 112.493 42.1212 112.121 42.7032 111.741C43.2947 111.375 43.8811 111.002 44.4772 110.644C45.0737 110.286 45.6716 109.931 46.2828 109.596C45.7202 110.007 45.1446 110.397 44.5668 110.785C43.989 111.172 43.4019 111.544 42.8194 111.924C42.2276 112.289 41.6416 112.663 41.0451 113.021C40.449 113.379 39.8511 113.734 39.2402 114.069Z" fill="#0046A0"/>
<path opacity="0.1" d="M40.0247 112.197C39.4325 112.846 38.8831 113.562 38.5 114.54C38.6367 114.549 38.7702 114.553 38.9011 114.554C39.2353 113.951 39.6354 113.451 40.0585 112.988C40.6582 112.351 41.3194 111.811 42.036 111.358C42.752 110.904 43.5226 110.537 44.354 110.264C45.0828 110.039 45.8437 109.863 46.7161 109.864C46.851 109.623 46.9762 109.366 47.087 109.086C46.0409 109.02 45.1602 109.215 44.3205 109.474C43.4895 109.747 42.7189 110.114 42.003 110.568C41.2856 111.02 40.6247 111.561 40.0247 112.197Z" fill="#0046A0"/>
<path d="M130.163 111.204C129.451 111.938 128.657 112.602 127.862 113.243C125.874 114.846 123.732 116.259 121.487 117.476C118.42 119.138 115.141 120.415 111.737 121.192C107.669 122.121 103.442 122.298 99.3136 121.678C94.2055 120.911 89.3538 118.945 84.9637 116.253C84.3258 115.862 83.6977 115.454 83.0778 115.035C82.885 114.904 83.1142 114.624 83.3063 114.754C87.7057 117.733 92.6067 120.019 97.8376 121.054C101.977 121.872 106.245 121.885 110.39 121.104C113.862 120.45 117.221 119.254 120.369 117.656C122.74 116.452 124.998 115.017 127.098 113.386C128.059 112.639 128.983 111.791 129.845 111.013C129.858 111.001 129.87 110.988 129.882 110.976C130.043 110.81 130.326 111.037 130.163 111.204Z" fill="#6E7FDD"/>
<path d="M127.198 113.765C128.228 113.569 129.033 113.161 129.781 112.701C130.518 112.23 131.174 111.682 131.754 111.065C132.336 110.448 132.841 109.761 133.264 108.994C133.676 108.219 134.03 107.388 134.158 106.346C133.126 106.54 132.32 106.947 131.572 107.407C130.835 107.878 130.181 108.426 129.602 109.046C129.023 109.665 128.518 110.354 128.095 111.119C127.684 111.896 127.329 112.725 127.198 113.765Z" fill="#6E7FDD"/>
<path d="M133.558 106.986C133.049 107.462 132.558 107.955 132.07 108.45C131.581 108.945 131.106 109.453 130.624 109.954C130.155 110.467 129.678 110.973 129.215 111.492C128.752 112.011 128.291 112.533 127.849 113.07C128.357 112.594 128.848 112.102 129.337 111.607C129.826 111.111 130.3 110.604 130.782 110.102C131.252 109.589 131.729 109.083 132.191 108.564C132.654 108.045 133.115 107.524 133.558 106.986Z" fill="#0046A0"/>
<path opacity="0.1" d="M131.573 107.408C132.32 106.947 133.126 106.541 134.158 106.347C134.142 106.483 134.121 106.614 134.097 106.743C133.442 106.959 132.877 107.259 132.342 107.588C131.605 108.059 130.951 108.607 130.373 109.227C129.793 109.846 129.288 110.535 128.865 111.3C128.508 111.974 128.194 112.689 128.031 113.546C127.769 113.634 127.494 113.709 127.198 113.765C127.329 112.725 127.684 111.896 128.095 111.12C128.518 110.354 129.023 109.665 129.602 109.047C130.181 108.427 130.835 107.878 131.573 107.408Z" fill="#0046A0"/>
<path d="M124.502 115.626C125.342 115 125.889 114.282 126.362 113.542C126.82 112.797 127.17 112.018 127.424 111.209C127.678 110.4 127.833 109.561 127.88 108.687C127.912 107.809 127.869 106.908 127.529 105.914C126.685 106.539 126.137 107.256 125.665 107.997C125.207 108.742 124.857 109.521 124.607 110.331C124.356 111.14 124.202 111.98 124.155 112.854C124.123 113.732 124.166 114.633 124.502 115.626Z" fill="#6E7FDD"/>
<path d="M127.268 106.751C127.019 107.401 126.792 108.059 126.568 108.718C126.344 109.376 126.139 110.041 125.923 110.701C125.724 111.368 125.517 112.031 125.326 112.7C125.136 113.369 124.949 114.039 124.785 114.716C125.035 114.066 125.262 113.409 125.486 112.75C125.709 112.091 125.915 111.427 126.13 110.766C126.329 110.099 126.537 109.436 126.727 108.767C126.917 108.098 127.104 107.428 127.268 106.751Z" fill="#0046A0"/>
<path opacity="0.1" d="M125.665 107.997C126.137 107.256 126.685 106.539 127.529 105.914C127.573 106.044 127.612 106.171 127.647 106.298C127.152 106.778 126.774 107.294 126.437 107.823C125.978 108.568 125.629 109.348 125.379 110.157C125.127 110.967 124.973 111.807 124.927 112.68C124.899 113.443 124.928 114.223 125.156 115.065C124.958 115.258 124.743 115.446 124.502 115.626C124.166 114.633 124.124 113.732 124.155 112.854C124.201 111.98 124.356 111.141 124.607 110.331C124.857 109.521 125.206 108.742 125.665 107.997Z" fill="#0046A0"/>
<path d="M124.622 115.485C125.386 116.203 126.188 116.615 127 116.95C127.815 117.271 128.643 117.478 129.483 117.585C130.324 117.694 131.178 117.699 132.046 117.591C132.916 117.469 133.796 117.268 134.714 116.759C133.951 116.038 133.149 115.625 132.337 115.29C131.523 114.97 130.694 114.763 129.853 114.659C129.012 114.554 128.158 114.549 127.29 114.657C126.42 114.78 125.54 114.98 124.622 115.485Z" fill="#6E7FDD"/>
<path d="M133.845 116.65C133.161 116.518 132.474 116.41 131.786 116.306C131.099 116.201 130.409 116.116 129.72 116.02C129.029 115.941 128.339 115.853 127.647 115.783C126.955 115.713 126.263 115.647 125.567 115.604C126.252 115.737 126.939 115.844 127.626 115.949C128.314 116.053 129.004 116.139 129.693 116.235C130.384 116.313 131.073 116.402 131.765 116.471C132.457 116.541 133.15 116.607 133.845 116.65Z" fill="#0046A0"/>
<path opacity="0.1" d="M132.336 115.29C133.149 115.625 133.951 116.039 134.714 116.76C134.594 116.826 134.475 116.887 134.357 116.943C133.797 116.54 133.223 116.258 132.643 116.019C131.828 115.699 131 115.492 130.159 115.388C129.318 115.283 128.464 115.279 127.596 115.386C126.84 115.493 126.077 115.658 125.288 116.031C125.063 115.87 124.841 115.691 124.621 115.485C125.539 114.98 126.419 114.78 127.289 114.657C128.157 114.549 129.011 114.554 129.852 114.659C130.694 114.763 131.523 114.97 132.336 115.29Z" fill="#0046A0"/>
<path d="M119.159 118.385C120.087 117.899 120.74 117.276 121.323 116.619C121.893 115.956 122.361 115.241 122.738 114.482C123.117 113.724 123.402 112.919 123.585 112.063C123.755 111.201 123.853 110.305 123.674 109.27C122.742 109.754 122.088 110.376 121.506 111.033C120.936 111.697 120.469 112.412 120.095 113.173C119.719 113.932 119.435 114.738 119.252 115.593C119.083 116.455 118.983 117.352 119.159 118.385Z" fill="#6E7FDD"/>
<path d="M123.286 110.055C122.937 110.658 122.609 111.271 122.285 111.887C121.961 112.502 121.654 113.126 121.337 113.745C121.035 114.371 120.726 114.994 120.433 115.625C120.14 116.256 119.85 116.888 119.582 117.531C119.931 116.928 120.258 116.314 120.583 115.699C120.907 115.084 121.215 114.461 121.531 113.841C121.832 113.214 122.142 112.592 122.434 111.961C122.727 111.33 123.017 110.698 123.286 110.055Z" fill="#0046A0"/>
<path opacity="0.1" d="M121.506 111.033C122.089 110.376 122.743 109.754 123.674 109.27C123.698 109.404 123.716 109.536 123.73 109.667C123.166 110.063 122.711 110.514 122.295 110.983C121.725 111.647 121.258 112.362 120.884 113.123C120.509 113.882 120.224 114.688 120.041 115.543C119.895 116.292 119.8 117.067 119.893 117.934C119.667 118.094 119.425 118.246 119.159 118.385C118.983 117.352 119.083 116.455 119.252 115.593C119.435 114.737 119.719 113.932 120.095 113.173C120.469 112.412 120.936 111.697 121.506 111.033Z" fill="#0046A0"/>
<path d="M119.301 118.266C119.943 119.094 120.67 119.628 121.419 120.087C122.173 120.531 122.958 120.866 123.772 121.104C124.585 121.343 125.427 121.482 126.302 121.512C127.18 121.528 128.08 121.467 129.068 121.109C128.427 120.277 127.7 119.742 126.95 119.284C126.197 118.84 125.411 118.505 124.597 118.271C123.783 118.035 122.94 117.896 122.066 117.866C121.187 117.852 120.287 117.911 119.301 118.266Z" fill="#6E7FDD"/>
<path d="M128.226 120.864C127.57 120.627 126.909 120.412 126.246 120.201C125.583 119.989 124.915 119.797 124.251 119.594C123.581 119.407 122.913 119.212 122.241 119.035C121.569 118.857 120.895 118.683 120.215 118.532C120.87 118.77 121.532 118.984 122.194 119.195C122.857 119.406 123.525 119.599 124.19 119.802C124.86 119.988 125.527 120.184 126.199 120.361C126.872 120.538 127.546 120.713 128.226 120.864Z" fill="#0046A0"/>
<path opacity="0.1" d="M126.95 119.285C127.7 119.743 128.427 120.278 129.067 121.11C128.939 121.157 128.812 121.198 128.686 121.235C128.197 120.749 127.673 120.381 127.138 120.054C126.384 119.609 125.599 119.275 124.785 119.04C123.97 118.804 123.128 118.666 122.254 118.635C121.491 118.622 120.711 118.666 119.874 118.91C119.677 118.716 119.485 118.504 119.301 118.266C120.287 117.912 121.187 117.852 122.066 117.867C122.94 117.897 123.783 118.036 124.597 118.272C125.411 118.507 126.196 118.841 126.95 119.285Z" fill="#0046A0"/>
<path d="M113.177 120.6C114.171 120.268 114.915 119.757 115.595 119.201C116.263 118.636 116.839 118.006 117.332 117.316C117.827 116.628 118.236 115.879 118.553 115.063C118.858 114.239 119.098 113.369 119.086 112.319C118.089 112.649 117.344 113.159 116.664 113.716C115.996 114.28 115.421 114.911 114.931 115.603C114.439 116.293 114.03 117.043 113.713 117.858C113.409 118.682 113.168 119.552 113.177 120.6Z" fill="#6E7FDD"/>
<path d="M118.577 113.033C118.136 113.573 117.715 114.127 117.297 114.683C116.879 115.238 116.476 115.805 116.065 116.366C115.668 116.937 115.264 117.502 114.874 118.078C114.485 118.654 114.098 119.232 113.73 119.824C114.171 119.285 114.592 118.731 115.01 118.175C115.428 117.619 115.831 117.052 116.242 116.492C116.638 115.92 117.043 115.355 117.433 114.779C117.822 114.203 118.209 113.625 118.577 113.033Z" fill="#0046A0"/>
<path opacity="0.1" d="M116.665 113.716C117.345 113.159 118.089 112.649 119.086 112.319C119.088 112.456 119.085 112.59 119.078 112.721C118.458 113.022 117.937 113.395 117.452 113.792C116.784 114.356 116.209 114.987 115.718 115.679C115.227 116.369 114.818 117.119 114.501 117.934C114.236 118.65 114.02 119.4 113.974 120.271C113.725 120.393 113.462 120.505 113.177 120.6C113.168 119.552 113.409 118.683 113.713 117.858C114.03 117.043 114.439 116.293 114.931 115.603C115.422 114.911 115.997 114.28 116.665 113.716Z" fill="#0046A0"/>
<path d="M113.335 120.505C113.836 121.425 114.47 122.067 115.137 122.64C115.81 123.198 116.532 123.654 117.297 124.019C118.062 124.384 118.872 124.656 119.73 124.825C120.594 124.98 121.493 125.064 122.525 124.868C122.025 123.944 121.392 123.301 120.725 122.729C120.052 122.171 119.33 121.715 118.563 121.354C117.797 120.991 116.986 120.72 116.128 120.552C115.263 120.396 114.365 120.312 113.335 120.505Z" fill="#6E7FDD"/>
<path d="M121.733 124.491C121.124 124.153 120.505 123.836 119.884 123.522C119.263 123.207 118.635 122.911 118.01 122.604C117.378 122.314 116.751 122.015 116.115 121.732C115.48 121.45 114.843 121.171 114.195 120.914C114.804 121.252 115.423 121.569 116.044 121.883C116.664 122.197 117.293 122.495 117.917 122.8C118.549 123.09 119.177 123.39 119.813 123.672C120.448 123.954 121.085 124.233 121.733 124.491Z" fill="#0046A0"/>
<path opacity="0.1" d="M120.725 122.729C121.392 123.3 122.025 123.944 122.525 124.867C122.39 124.893 122.258 124.913 122.128 124.93C121.722 124.372 121.264 123.925 120.788 123.517C120.115 122.958 119.393 122.503 118.626 122.142C117.859 121.779 117.049 121.508 116.191 121.339C115.44 121.205 114.664 121.124 113.798 121.232C113.635 121.008 113.479 120.769 113.335 120.505C114.365 120.312 115.263 120.397 116.128 120.551C116.986 120.72 117.796 120.991 118.562 121.353C119.329 121.715 120.051 122.17 120.725 122.729Z" fill="#0046A0"/>
<path d="M106.329 121.723C107.368 121.587 108.196 121.228 108.97 120.813C109.734 120.387 110.42 119.879 111.037 119.297C111.654 118.716 112.2 118.059 112.667 117.319C113.124 116.569 113.526 115.762 113.716 114.729C112.674 114.861 111.845 115.219 111.071 115.635C110.307 116.061 109.622 116.57 109.008 117.155C108.393 117.738 107.848 118.396 107.381 119.135C106.924 119.886 106.521 120.692 106.329 121.723Z" fill="#6E7FDD"/>
<path d="M113.079 115.332C112.543 115.777 112.024 116.24 111.507 116.705C110.99 117.171 110.486 117.65 109.975 118.121C109.476 118.605 108.971 119.083 108.478 119.573C107.985 120.064 107.494 120.557 107.021 121.068C107.557 120.623 108.076 120.16 108.593 119.695C109.109 119.229 109.614 118.751 110.124 118.279C110.623 117.794 111.129 117.317 111.622 116.826C112.115 116.335 112.605 115.842 113.079 115.332Z" fill="#0046A0"/>
<path opacity="0.1" d="M111.072 115.635C111.846 115.22 112.675 114.862 113.717 114.729C113.692 114.864 113.663 114.994 113.632 115.121C112.965 115.298 112.383 115.564 111.83 115.861C111.066 116.287 110.381 116.796 109.767 117.381C109.152 117.964 108.607 118.622 108.14 119.361C107.744 120.013 107.387 120.708 107.175 121.554C106.907 121.626 106.628 121.685 106.33 121.723C106.522 120.693 106.925 119.886 107.382 119.136C107.849 118.396 108.394 117.739 109.009 117.156C109.623 116.57 110.308 116.061 111.072 115.635Z" fill="#0046A0"/>
<path d="M106.503 121.661C106.819 122.66 107.317 123.412 107.862 124.101C108.416 124.778 109.037 125.364 109.718 125.869C110.399 126.374 111.141 126.796 111.951 127.126C112.77 127.444 113.636 127.699 114.686 127.704C114.373 126.702 113.875 125.949 113.33 125.26C112.776 124.583 112.154 123.997 111.471 123.496C110.788 122.993 110.045 122.572 109.236 122.242C108.416 121.924 107.551 121.668 106.503 121.661Z" fill="#6E7FDD"/>
<path d="M113.981 127.183C113.448 126.734 112.902 126.304 112.353 125.877C111.804 125.449 111.243 125.038 110.69 124.617C110.125 124.211 109.567 123.798 108.997 123.398C108.427 122.999 107.856 122.603 107.27 122.226C107.802 122.675 108.349 123.105 108.898 123.532C109.447 123.959 110.007 124.372 110.561 124.792C111.126 125.197 111.684 125.612 112.254 126.01C112.823 126.41 113.395 126.806 113.981 127.183Z" fill="#0046A0"/>
<path opacity="0.1" d="M113.329 125.26C113.875 125.949 114.372 126.702 114.686 127.704C114.549 127.703 114.416 127.698 114.285 127.689C113.993 127.064 113.63 126.538 113.24 126.046C112.686 125.369 112.065 124.783 111.382 124.281C110.699 123.779 109.956 123.358 109.146 123.027C108.435 122.751 107.689 122.523 106.818 122.463C106.7 122.212 106.594 121.948 106.503 121.661C107.551 121.669 108.416 121.924 109.235 122.242C110.045 122.572 110.788 122.993 111.47 123.496C112.154 123.998 112.776 124.583 113.329 125.26Z" fill="#0046A0"/>
<path d="M100.277 121.708C101.324 121.651 102.176 121.355 102.979 120.999C103.773 120.631 104.495 120.176 105.153 119.641C105.813 119.108 106.406 118.494 106.927 117.791C107.439 117.077 107.901 116.302 108.167 115.286C107.118 115.34 106.265 115.635 105.463 115.992C104.669 116.36 103.947 116.816 103.291 117.353C102.634 117.889 102.042 118.503 101.52 119.206C101.008 119.92 100.546 120.695 100.277 121.708Z" fill="#6E7FDD"/>
<path d="M107.487 115.839C106.919 116.243 106.367 116.666 105.816 117.092C105.266 117.517 104.728 117.957 104.183 118.389C103.649 118.834 103.109 119.273 102.581 119.725C102.052 120.177 101.526 120.632 101.016 121.106C101.583 120.702 102.136 120.279 102.686 119.854C103.236 119.429 103.775 118.989 104.32 118.557C104.853 118.111 105.393 117.673 105.921 117.22C106.449 116.768 106.975 116.313 107.487 115.839Z" fill="#0046A0"/>
<path opacity="0.1" d="M105.462 115.991C106.265 115.635 107.117 115.34 108.166 115.286C108.132 115.418 108.093 115.546 108.052 115.671C107.374 115.797 106.774 116.018 106.2 116.273C105.407 116.641 104.685 117.097 104.029 117.634C103.372 118.17 102.78 118.785 102.258 119.487C101.814 120.107 101.407 120.773 101.132 121.601C100.86 121.653 100.577 121.691 100.276 121.707C100.545 120.694 101.007 119.919 101.519 119.205C102.04 118.503 102.633 117.888 103.29 117.352C103.946 116.815 104.668 116.359 105.462 115.991Z" fill="#0046A0"/>
<path d="M100.456 121.657C100.696 122.677 101.137 123.464 101.629 124.193C102.13 124.909 102.705 125.54 103.347 126.094C103.988 126.649 104.697 127.126 105.48 127.515C106.272 127.894 107.117 128.212 108.163 128.296C107.926 127.273 107.486 126.485 106.994 125.757C106.492 125.04 105.916 124.41 105.272 123.859C104.629 123.306 103.92 122.831 103.137 122.441C102.344 122.063 101.5 121.744 100.456 121.657Z" fill="#6E7FDD"/>
<path d="M107.498 127.723C107.001 127.235 106.487 126.766 105.972 126.299C105.457 125.832 104.929 125.379 104.408 124.919C103.876 124.471 103.35 124.017 102.812 123.576C102.274 123.136 101.733 122.698 101.177 122.278C101.674 122.766 102.187 123.236 102.702 123.703C103.218 124.17 103.745 124.623 104.267 125.083C104.8 125.53 105.325 125.985 105.864 126.425C106.402 126.866 106.942 127.303 107.498 127.723Z" fill="#0046A0"/>
<path opacity="0.1" d="M106.994 125.757C107.486 126.485 107.926 127.273 108.164 128.296C108.027 128.285 107.895 128.27 107.765 128.251C107.521 127.606 107.198 127.054 106.846 126.534C106.345 125.817 105.769 125.187 105.125 124.636C104.482 124.083 103.773 123.607 102.99 123.218C102.301 122.889 101.574 122.606 100.71 122.48C100.612 122.222 100.525 121.95 100.456 121.657C101.5 121.744 102.344 122.063 103.137 122.441C103.921 122.831 104.63 123.306 105.272 123.859C105.916 124.41 106.492 125.041 106.994 125.757Z" fill="#0046A0"/>
<path d="M93.1592 120.022C94.1935 120.19 95.0896 120.083 95.9505 119.907C96.8046 119.718 97.6076 119.427 98.3645 119.046C99.1225 118.666 99.8334 118.193 100.492 117.618C101.145 117.031 101.762 116.372 102.24 115.436C101.204 115.265 100.307 115.37 99.447 115.547C98.5929 115.736 97.7903 116.028 97.0348 116.412C96.2783 116.795 95.5681 117.269 94.9087 117.843C94.2561 118.432 93.6384 119.089 93.1592 120.022Z" fill="#6E7FDD"/>
<path d="M101.457 115.832C100.817 116.105 100.186 116.4 99.5579 116.697C98.9291 116.995 98.3092 117.31 97.6847 117.615C97.0677 117.936 96.4468 118.249 95.8341 118.578C95.2214 118.907 94.6102 119.239 94.0098 119.592C94.6509 119.319 95.2808 119.025 95.9093 118.727C96.5378 118.429 97.158 118.115 97.7825 117.809C98.3992 117.487 99.0205 117.176 99.6331 116.846C100.246 116.517 100.857 116.185 101.457 115.832Z" fill="#0046A0"/>
<path opacity="0.1" d="M99.447 115.548C100.308 115.371 101.204 115.266 102.24 115.437C102.178 115.559 102.113 115.676 102.046 115.789C101.357 115.767 100.723 115.855 100.109 115.981C99.2545 116.17 98.4519 116.462 97.6964 116.846C96.9399 117.229 96.2297 117.703 95.5699 118.277C95.0033 118.789 94.4633 119.352 94.0172 120.102C93.7405 120.094 93.4563 120.07 93.1592 120.022C93.638 119.09 94.2557 118.432 94.9083 117.844C95.5677 117.27 96.2783 116.796 97.0345 116.413C97.7903 116.029 98.5929 115.737 99.447 115.548Z" fill="#0046A0"/>
<path d="M93.3438 120.012C93.3599 121.06 93.6226 121.923 93.9467 122.74C94.2834 123.547 94.7105 124.287 95.2188 124.965C95.726 125.644 96.3164 126.261 96.9982 126.809C97.6914 127.349 98.4483 127.841 99.4528 128.146C99.4391 127.096 99.1779 126.232 98.8531 125.416C98.5167 124.608 98.0886 123.87 97.5777 123.193C97.0679 122.516 96.4769 121.899 95.7955 121.351C95.1015 120.813 94.3457 120.32 93.3438 120.012Z" fill="#6E7FDD"/>
<path d="M98.9261 127.445C98.5444 126.862 98.1436 126.293 97.74 125.727C97.3367 125.16 96.9179 124.605 96.5074 124.044C96.0829 123.493 95.6663 122.937 95.2346 122.391C94.8029 121.846 94.3687 121.303 93.915 120.774C94.2964 121.357 94.6971 121.926 95.1008 122.492C95.5044 123.058 95.9228 123.614 96.3337 124.175C96.7586 124.725 97.1748 125.282 97.6065 125.828C98.0382 126.372 98.4724 126.916 98.9261 127.445Z" fill="#0046A0"/>
<path opacity="0.1" d="M98.8531 125.416C99.1783 126.232 99.4395 127.096 99.4528 128.146C99.3218 128.106 99.1955 128.063 99.0725 128.017C98.9725 127.335 98.7746 126.726 98.5426 126.144C98.2062 125.336 97.7781 124.597 97.2672 123.921C96.7575 123.244 96.1664 122.627 95.485 122.079C94.8824 121.611 94.2327 121.178 93.4161 120.871C93.375 120.598 93.3484 120.313 93.3438 120.013C94.3457 120.32 95.1015 120.813 95.7951 121.352C96.4765 121.9 97.0679 122.517 97.5774 123.194C98.0889 123.87 98.5167 124.608 98.8531 125.416Z" fill="#0046A0"/>
<path d="M102.016 125.446C102.016 128.253 99.7192 130.549 96.9124 130.549H39.4625C36.6557 130.549 34.3594 128.253 34.3594 125.446V24.1007C34.3594 21.2939 36.6557 18.9976 39.4625 18.9976H96.9124C99.7192 18.9976 102.016 21.2939 102.016 24.1007V125.446Z" fill="#6E7FDD"/>
<path d="M81.6209 23.0713C81.0507 25.0759 75.2565 26.6512 68.188 26.6512C61.1195 26.6512 55.3249 25.0759 54.7547 23.0713H39.4629V119.212H96.9128V23.0713H81.6209Z" fill="#C2CEF2"/>
<path d="M89.4764 40.272H46.6819C46.0199 40.272 45.4785 40.8134 45.4785 41.4754V51.0776V52.7929V56.6078L50.2762 53.9963H89.476C90.138 53.9963 90.6794 53.4549 90.6794 52.7929V41.4754C90.6794 40.8138 90.138 40.272 89.4764 40.272Z" fill="#B0C1EA"/>
<path d="M86.813 43.124H49.3447V43.5251H86.813V43.124Z" fill="#D2DDF9"/>
<path d="M86.813 47.1333H49.3447V47.5344H86.813V47.1333Z" fill="#D2DDF9"/>
<path d="M75.9707 51.1445H49.3447V51.5457H75.9707V51.1445Z" fill="#D2DDF9"/>
<path d="M49.6582 38.5351C51.9137 38.5351 53.7421 36.7067 53.7421 34.4511C53.7421 32.1956 51.9137 30.3672 49.6582 30.3672C47.4027 30.3672 45.5742 32.1956 45.5742 34.4511C45.5742 36.7067 47.4027 38.5351 49.6582 38.5351Z" fill="#B0C1EA"/>
<mask id="mask0_674_11512" style="mask-type:luminance" maskUnits="userSpaceOnUse" x="45" y="30" width="9" height="9">
<path d="M49.6582 38.5351C51.9137 38.5351 53.7421 36.7067 53.7421 34.4511C53.7421 32.1956 51.9137 30.3672 49.6582 30.3672C47.4027 30.3672 45.5742 32.1956 45.5742 34.4511C45.5742 36.7067 47.4027 38.5351 49.6582 38.5351Z" fill="white"/>
</mask>
<g mask="url(#mask0_674_11512)">
<path d="M49.6587 34.9287C50.2754 34.9287 50.7754 34.4287 50.7754 33.812C50.7754 33.1953 50.2754 32.6953 49.6587 32.6953C49.042 32.6953 48.542 33.1953 48.542 33.812C48.542 34.4287 49.042 34.9287 49.6587 34.9287Z" fill="#D2DDF9"/>
<path d="M49.658 35.3438C48.4067 35.3438 47.3926 36.3579 47.3926 37.6091C47.3926 38.8604 48.4067 39.8745 49.658 39.8745C50.9092 39.8745 51.9233 38.8604 51.9233 37.6091C51.9233 36.3579 50.9088 35.3438 49.658 35.3438Z" fill="#D2DDF9"/>
</g>
<path d="M46.6819 68.3501H89.476C90.138 68.3501 90.6794 68.8915 90.6794 69.5535V79.1557V80.8711V84.6859L85.8817 82.0745H46.6819C46.0199 82.0745 45.4785 81.533 45.4785 80.8711V69.5535C45.4789 68.8915 46.0203 68.3501 46.6819 68.3501Z" fill="#B0C1EA"/>
<path d="M86.813 71.1992H49.3447V71.6003H86.813V71.1992Z" fill="#D2DDF9"/>
<path d="M86.813 75.2114H49.3447V75.6126H86.813V75.2114Z" fill="#D2DDF9"/>
<path d="M86.8134 79.2212H60.1875V79.6223H86.8134V79.2212Z" fill="#D2DDF9"/>
<path d="M86.8135 66.3115C89.069 66.3115 90.8974 64.483 90.8974 62.2275C90.8974 59.972 89.069 58.1436 86.8135 58.1436C84.5579 58.1436 82.7295 59.972 82.7295 62.2275C82.7295 64.483 84.5579 66.3115 86.8135 66.3115Z" fill="#B0C1EA"/>
<mask id="mask1_674_11512" style="mask-type:luminance" maskUnits="userSpaceOnUse" x="82" y="58" width="9" height="9">
<path d="M86.8135 66.3124C89.069 66.3124 90.8974 64.484 90.8974 62.2285C90.8974 59.973 89.069 58.1445 86.8135 58.1445C84.5579 58.1445 82.7295 59.973 82.7295 62.2285C82.7295 64.484 84.5579 66.3124 86.8135 66.3124Z" fill="white"/>
</mask>
<g mask="url(#mask1_674_11512)">
<path d="M86.813 62.7065C87.4296 62.7065 87.9297 62.2065 87.9297 61.5898C87.9297 60.9732 87.4296 60.4731 86.813 60.4731C86.1964 60.4731 85.6963 60.9732 85.6963 61.5898C85.6963 62.2065 86.1964 62.7065 86.813 62.7065Z" fill="#D2DDF9"/>
<path d="M86.8132 63.1211C85.562 63.1211 84.5479 64.1352 84.5479 65.3865C84.5479 66.6374 85.562 67.6519 86.8132 67.6519C88.0645 67.6519 89.0786 66.6377 89.0786 65.3865C89.0786 64.1352 88.0645 63.1211 86.8132 63.1211Z" fill="#D2DDF9"/>
</g>
<path d="M89.4764 97.2275H46.6819C46.0199 97.2275 45.4785 97.769 45.4785 98.4309V108.033V109.748V113.563L50.2762 110.952H89.476C90.138 110.952 90.6794 110.41 90.6794 109.748V98.4309C90.6794 97.769 90.138 97.2275 89.4764 97.2275Z" fill="#B0C1EA"/>
<path d="M86.813 100.079H49.3447V100.48H86.813V100.079Z" fill="#D2DDF9"/>
<path d="M86.813 104.089H49.3447V104.49H86.813V104.089Z" fill="#D2DDF9"/>
<path d="M75.9707 108.101H49.3447V108.502H75.9707V108.101Z" fill="#D2DDF9"/>
<path d="M49.6582 94.9516C51.9137 94.9516 53.7421 93.1232 53.7421 90.8676C53.7421 88.6121 51.9137 86.7837 49.6582 86.7837C47.4027 86.7837 45.5742 88.6121 45.5742 90.8676C45.5742 93.1232 47.4027 94.9516 49.6582 94.9516Z" fill="#B0C1EA"/>
<mask id="mask2_674_11512" style="mask-type:luminance" maskUnits="userSpaceOnUse" x="45" y="86" width="9" height="9">
<path d="M49.6582 94.9516C51.9137 94.9516 53.7421 93.1232 53.7421 90.8676C53.7421 88.6121 51.9137 86.7837 49.6582 86.7837C47.4027 86.7837 45.5742 88.6121 45.5742 90.8676C45.5742 93.1232 47.4027 94.9516 49.6582 94.9516Z" fill="white"/>
</mask>
<g mask="url(#mask2_674_11512)">
<path d="M49.6587 91.3471C50.2753 91.3471 50.7754 90.8471 50.7754 90.2305C50.7754 89.6138 50.2753 89.1138 49.6587 89.1138C49.0421 89.1138 48.542 89.6138 48.542 90.2305C48.542 90.8471 49.0417 91.3471 49.6587 91.3471Z" fill="#D2DDF9"/>
<path d="M49.658 91.7622C48.4067 91.7622 47.3926 92.7764 47.3926 94.0276C47.3926 95.2788 48.4067 96.293 49.658 96.293C50.9092 96.293 51.9233 95.2788 51.9233 94.0276C51.923 92.7764 50.9088 91.7622 49.658 91.7622Z" fill="#D2DDF9"/>
</g>
<path d="M86.5454 62.0174L81.1397 56.6113L68.1877 69.5626L55.2361 56.6113L49.8301 62.0174L62.782 74.9683L49.8301 87.9195L55.2361 93.3252L68.1877 80.3743L81.1397 93.3252L86.5454 87.9195L73.5938 74.9683L86.5454 62.0174Z" fill="#6E7FDD"/>
<path d="M130.435 12.5093H82.7305V48.4601H130.435V12.5093Z" fill="#F2F2F2"/>
<path d="M127.644 14.7744H85.5215V20.5179H127.644V14.7744Z" fill="#D2DDF7"/>
<path d="M126.271 16.0649L125.634 15.4277L124.107 16.9542L122.58 15.4277L121.943 16.0649L123.47 17.5917L121.943 19.1181L122.58 19.7556L124.107 18.2288L125.634 19.7556L126.271 19.1181L124.745 17.5917L126.271 16.0649Z" fill="#F2F2F2"/>
<path d="M106.443 41.8711C106.436 41.8711 106.429 41.8711 106.421 41.8711C103.239 41.8567 100.305 41.3826 97.447 40.4209C95.9641 39.9309 94.4517 39.2607 92.9544 38.4297C92.2827 38.0437 91.4977 37.576 90.6958 36.9946C89.94 36.4679 89.1744 35.8319 88.4315 35.1109L87.9199 34.6148L88.4315 34.1187C89.1751 33.3978 89.9403 32.7617 90.7066 32.2278C91.4981 31.654 92.2834 31.1863 92.9457 30.8057C94.452 29.9696 95.9644 29.2991 97.4506 28.808C100.305 27.8478 103.239 27.3736 106.419 27.3589C106.426 27.3589 106.433 27.3589 106.441 27.3589C109.592 27.3589 112.52 27.8269 115.396 28.79C116.884 29.2814 118.397 29.9531 119.89 30.7845C120.565 31.1748 121.353 31.6465 122.149 32.2257C122.902 32.7524 123.667 33.3924 124.413 34.1198L124.921 34.6145L124.413 35.1091C123.668 35.8365 122.903 36.4766 122.139 37.0112C121.353 37.5832 120.565 38.0544 119.899 38.4397C118.396 39.2769 116.884 39.9482 115.393 40.4404C112.521 41.4027 109.593 41.8711 106.443 41.8711Z" fill="#6E7FDD"/>
<path d="M109.724 35.2631C107.542 35.2631 105.772 33.4938 105.772 31.3112C105.772 30.7665 105.882 30.2478 106.082 29.7754C103.558 29.9499 101.563 32.0469 101.563 34.6152C101.563 37.2975 103.738 39.4719 106.421 39.4719C108.989 39.4719 111.086 37.4771 111.26 34.9534C110.788 35.1527 110.269 35.2631 109.724 35.2631Z" fill="#FFCF74"/>
<path d="M114.549 25.6992L97.5 42.748L98.2916 43.5397L115.34 26.4909L114.549 25.6992Z" fill="#EB725F"/>
<path d="M38.6117 55.8306C29.5469 55.8306 22.1719 63.2052 22.1719 72.27C22.1719 81.3348 29.5465 88.7098 38.6117 88.7098C47.6764 88.7098 55.0514 81.3348 55.0514 72.27C55.0514 63.2052 47.6768 55.8306 38.6117 55.8306Z" fill="#FFCF74"/>
<path d="M38.6119 60.9048C32.3449 60.9048 27.2461 66.0033 27.2461 72.2702C27.2461 78.5372 32.3446 83.636 38.6119 83.636C44.8792 83.636 49.9777 78.5372 49.9777 72.2702C49.978 66.0033 44.8792 60.9048 38.6119 60.9048ZM38.6119 63.0479C40.7693 63.0479 42.7541 63.7944 44.3266 65.0398L31.3815 77.9849C30.136 76.4125 29.3895 74.4273 29.3895 72.2702C29.3895 67.1851 33.5267 63.0479 38.6119 63.0479ZM38.6119 81.4929C36.4544 81.4929 34.4696 80.7464 32.8968 79.5006L45.8423 66.5551C47.0881 68.1276 47.8346 70.1128 47.8346 72.2702C47.8346 77.3557 43.6974 81.4929 38.6119 81.4929Z" fill="white"/>
<path d="M35.9822 40.3009H34.4101C34.3723 40.135 34.3324 39.9703 34.2834 39.8087L35.6437 39.0295C36.3412 38.6298 36.5851 37.7322 36.1855 37.0347L36.0211 36.7476C35.6214 36.05 34.7238 35.8061 34.0262 36.2058L32.6591 36.989C32.5278 36.8469 32.3915 36.7105 32.2494 36.5792L33.0326 35.2118C33.4322 34.5142 33.1883 33.6166 32.4908 33.2173L32.2037 33.0529C31.5061 32.6532 30.6085 32.8971 30.2092 33.5947L29.43 34.9549C29.2688 34.906 29.1037 34.8664 28.9382 34.8283V33.2561C28.9382 32.4524 28.2805 31.7944 27.4765 31.7944H27.1455C26.3418 31.7944 25.6838 32.4521 25.6838 33.2561V34.8283C25.518 34.866 25.3532 34.906 25.1917 34.9549L24.4124 33.5947C24.0127 32.8971 23.1152 32.6532 22.4179 33.0529L22.1305 33.2173C21.4329 33.617 21.189 34.5146 21.5887 35.2118L22.3719 36.5792C22.2298 36.7105 22.0934 36.8469 21.9621 36.989L20.5947 36.2058C19.8971 35.8061 18.9995 36.05 18.6002 36.7476L18.4358 37.0347C18.0361 37.7322 18.28 38.6298 18.9776 39.0295L20.3382 39.8087C20.2893 39.9699 20.2493 40.135 20.2116 40.3005H18.6394C17.8357 40.3005 17.1777 40.9582 17.1777 41.7622V42.0932C17.1777 42.8969 17.8354 43.5549 18.6394 43.5549H20.2116C20.2493 43.7207 20.2893 43.8855 20.3382 44.047L18.9776 44.8263C18.28 45.226 18.0361 46.1235 18.4358 46.8211L18.6002 47.1082C18.9999 47.8058 19.8975 48.0497 20.5947 47.65L21.9621 46.8668C22.0934 47.0089 22.2298 47.1452 22.3719 47.2766L21.5887 48.644C21.189 49.3416 21.4329 50.2392 22.1305 50.6388L22.4179 50.8033C23.1155 51.2029 24.0131 50.959 24.4124 50.2615L25.1917 48.9009C25.3528 48.9498 25.518 48.9894 25.6838 49.0275V50.5996C25.6838 51.4033 26.3414 52.0613 27.1455 52.0613H27.4765C28.2802 52.0613 28.9382 51.4037 28.9382 50.5996V49.0275C29.104 48.9897 29.2688 48.9498 29.43 48.9009L30.2092 50.2615C30.6089 50.959 31.5065 51.2029 32.2037 50.8033L32.4908 50.6388C33.1883 50.2392 33.4322 49.3416 33.0326 48.644L32.2494 47.2766C32.3915 47.1452 32.5278 47.0089 32.6591 46.8668L34.0266 47.65C34.7241 48.0497 35.6217 47.8058 36.0214 47.1082L36.1858 46.8211C36.5855 46.1235 36.3416 45.226 35.644 44.8263L34.2834 44.047C34.3324 43.8859 34.3723 43.7207 34.4101 43.5549H35.9822C36.7859 43.5549 37.4439 42.8972 37.4439 42.0932V41.7622C37.4435 40.9585 36.7859 40.3009 35.9822 40.3009ZM27.3106 46.9445C24.5401 46.9445 22.2938 44.6985 22.2938 41.9277C22.2938 39.1572 24.5398 36.9113 27.3106 36.9113C30.0811 36.9113 32.3274 39.1572 32.3274 41.9277C32.3271 44.6985 30.0811 46.9445 27.3106 46.9445Z" fill="#F9AB43"/>
<path d="M24.0515 23.0528L23.0129 23.2888C22.9629 23.1848 22.9122 23.0819 22.8553 22.9826L23.6371 22.2635C24.0379 21.8947 24.0645 21.2652 23.6957 20.8644L23.5439 20.6993C23.1752 20.2985 22.5456 20.2719 22.1448 20.6406L21.3591 21.3634C21.2512 21.2893 21.1404 21.2195 21.0271 21.1544L21.3393 20.1334C21.4987 19.6124 21.203 19.0559 20.682 18.8969L20.4676 18.8314C19.9467 18.672 19.3905 18.9678 19.2312 19.4887L18.9203 20.5046C18.8066 20.4964 18.6915 20.4949 18.5764 20.4949L18.3404 19.4563C18.2199 18.9253 17.6864 18.5893 17.1554 18.7102L16.9366 18.7598C16.4056 18.8803 16.0696 19.4139 16.1905 19.9449L16.4265 20.9835C16.3225 21.0335 16.2196 21.0846 16.1203 21.1411L15.4012 20.3593C15.0324 19.9585 14.4029 19.9319 14.0021 20.3007L13.837 20.4525C13.4362 20.8212 13.4096 21.4508 13.7783 21.8516L14.5011 22.6373C14.427 22.7452 14.3572 22.856 14.2921 22.9693L13.2711 22.6571C12.7501 22.4977 12.194 22.7938 12.0346 23.3143L11.9691 23.5288C11.8097 24.0497 12.1055 24.6062 12.6264 24.7652L13.6423 25.0761C13.6341 25.1898 13.6326 25.3049 13.6326 25.42L12.594 25.656C12.063 25.7765 11.727 26.31 11.8479 26.841L11.8975 27.0598C12.018 27.5908 12.5516 27.9268 13.0826 27.8059L14.1212 27.5699C14.1712 27.6739 14.2219 27.7768 14.2787 27.8761L13.497 28.5952C13.0962 28.964 13.0696 29.5935 13.4384 29.9943L13.5902 30.1594C13.9589 30.5602 14.5885 30.5868 14.9893 30.2181L15.775 29.4953C15.8829 29.5694 15.9937 29.6392 16.107 29.7043L15.7948 30.7253C15.6354 31.2463 15.9311 31.8028 16.452 31.9618L16.6664 32.0273C17.1874 32.1867 17.7436 31.8909 17.9029 31.37L18.2138 30.3541C18.3274 30.3623 18.4426 30.3638 18.5577 30.3638L18.7937 31.4024C18.9142 31.9334 19.4477 32.2694 19.9787 32.1485L20.1975 32.0989C20.7285 31.9784 21.0645 31.4448 20.9436 30.9138L20.7076 29.8752C20.8116 29.8252 20.9145 29.7741 21.0137 29.7176L21.7329 30.4994C22.1016 30.9002 22.7312 30.9268 23.132 30.558L23.2971 30.4062C23.6979 30.0375 23.7245 29.4079 23.3558 29.0071L22.633 28.2214C22.7071 28.1135 22.7769 28.0027 22.842 27.8894L23.863 28.2016C24.3839 28.361 24.9401 28.0653 25.0995 27.5444L25.165 27.3299C25.3243 26.809 25.0286 26.2525 24.5077 26.0935L23.4917 25.7826C23.5 25.6689 23.5015 25.5538 23.5015 25.4387L24.5401 25.2027C25.0711 25.0822 25.4071 24.5487 25.2862 24.0177L25.2366 23.7989C25.1157 23.2679 24.5825 22.9323 24.0515 23.0528ZM19.3193 28.7438C17.4889 29.1597 15.6678 28.0128 15.2519 26.1823C14.836 24.3519 15.9829 22.5308 17.8134 22.1149C19.6438 21.699 21.4649 22.8459 21.8808 24.6764C22.2966 26.5068 21.1497 28.3279 19.3193 28.7438Z" fill="#EB725F"/>
<path d="M119.159 49.9193L118.138 50.151C118.089 50.0492 118.039 49.9477 117.983 49.8502L118.751 49.1437C119.145 48.7814 119.171 48.163 118.809 47.769L118.66 47.6068C118.297 47.2128 117.679 47.1869 117.285 47.5492L116.513 48.259C116.407 48.1864 116.298 48.1176 116.187 48.0536L116.494 47.0506C116.65 46.539 116.359 45.9922 115.848 45.8357L115.637 45.7713C115.125 45.6148 114.579 45.9055 114.422 46.4171L114.117 47.415C114.005 47.4071 113.892 47.4057 113.779 47.4053L113.547 46.3847C113.429 45.863 112.905 45.5331 112.383 45.6515L112.168 45.7004C111.647 45.8188 111.317 46.343 111.435 46.8646L111.667 47.8852C111.565 47.9342 111.463 47.9842 111.366 48.0399L110.659 47.2718C110.297 46.8779 109.679 46.852 109.285 47.2143L109.123 47.3636C108.729 47.7259 108.703 48.3443 109.065 48.7382L109.775 49.5103C109.702 49.6164 109.634 49.725 109.57 49.8366L108.567 49.5297C108.055 49.3732 107.508 49.6639 107.352 50.1754L107.287 50.3863C107.131 50.8978 107.422 51.4447 107.933 51.6012L108.931 51.9062C108.923 52.0181 108.922 52.1311 108.921 52.244L107.901 52.4761C107.379 52.5944 107.049 53.1186 107.168 53.6403L107.217 53.855C107.335 54.3767 107.859 54.7066 108.381 54.5882L109.401 54.3562C109.45 54.4583 109.5 54.5594 109.556 54.6569L108.788 55.3635C108.394 55.7258 108.368 56.3442 108.73 56.7381L108.88 56.9004C109.242 57.2943 109.86 57.3202 110.254 56.9579L111.026 56.2478C111.133 56.3204 111.241 56.3892 111.353 56.4532L111.046 57.4562C110.889 57.9678 111.18 58.5146 111.692 58.6711L111.902 58.7355C112.414 58.892 112.961 58.6013 113.117 58.0897L113.422 57.0918C113.534 57.0997 113.647 57.1011 113.76 57.1015L113.992 58.1221C114.11 58.6438 114.634 58.9736 115.156 58.8553L115.371 58.8064C115.892 58.688 116.222 58.1638 116.104 57.6422L115.872 56.6216C115.974 56.5726 116.076 56.5223 116.173 56.4669L116.88 57.2349C117.242 57.6289 117.86 57.6548 118.254 57.2925L118.416 57.1432C118.81 56.7809 118.836 56.1625 118.474 55.7686L117.764 54.9965C117.837 54.8904 117.906 54.7818 117.97 54.6702L118.973 54.9771C119.484 55.1336 120.031 54.8429 120.188 54.3314L120.252 54.1205C120.408 53.609 120.118 53.0621 119.606 52.9056L118.608 52.6006C118.616 52.4887 118.618 52.3757 118.618 52.2624L119.639 52.0307C120.16 51.9123 120.49 51.3882 120.372 50.8665L120.323 50.6518C120.204 50.1305 119.681 49.8006 119.159 49.9193ZM114.51 55.5103C112.711 55.919 110.922 54.7922 110.514 52.9938C110.105 51.1954 111.232 49.4063 113.031 48.998C114.829 48.5893 116.618 49.716 117.026 51.5145C117.435 53.3129 116.308 55.1016 114.51 55.5103Z" fill="#EB725F"/>
<path d="M117.709 130.549H69.0088V133.32H117.709V130.549Z" fill="#FFCF74"/>
<path d="M113.036 130.548H73.6826L90.6926 88.603H96.0256L113.036 130.548Z" fill="#F9AB43"/>
<mask id="mask3_674_11512" style="mask-type:luminance" maskUnits="userSpaceOnUse" x="73" y="88" width="41" height="43">
<path d="M113.036 130.546H73.6826L90.6926 88.6016H96.0256L113.036 130.546Z" fill="white"/>
</mask>
<g mask="url(#mask3_674_11512)">
<path d="M120.15 115.131H66.5664V125.186H120.15V115.131Z" fill="#FFCF74"/>
<path d="M120.15 95.1445H66.5664V105.199H120.15V95.1445Z" fill="#FFCF74"/>
</g>
<path opacity="0.1" d="M99.6684 103.609C102.837 113.241 103.127 122.815 101.041 130.548H113.035L96.0244 88.6035H91.9609C95.1254 92.8364 97.7958 97.9158 99.6684 103.609Z" fill="#0046A0"/>
<g opacity="0.3">
<path d="M89.9542 97.0146C88.8508 99.9164 87.7474 102.818 86.6444 105.72C84.8838 110.351 83.1231 114.982 81.3625 119.612C80.9556 120.683 80.5484 121.753 80.1415 122.824C79.7763 123.784 81.3175 124.199 81.6791 123.248C82.7824 120.346 83.8858 117.444 84.9888 114.542C86.7495 109.911 88.5101 105.281 90.2708 100.65C90.6777 99.5793 91.0849 98.509 91.4918 97.4384C91.8573 96.4782 90.3161 96.063 89.9542 97.0146Z" fill="white"/>
</g>
<path d="M48.4883 131.702H20.042V133.32H48.4883V131.702Z" fill="#FFCF74"/>
<path d="M45.7591 131.702H22.7725L32.7082 107.202H35.8233L45.7591 131.702Z" fill="#F9AB43"/>
<mask id="mask4_674_11512" style="mask-type:luminance" maskUnits="userSpaceOnUse" x="22" y="107" width="24" height="25">
<path d="M45.7591 131.702H22.7725L32.7082 107.202H35.8233L45.7591 131.702Z" fill="white"/>
</mask>
<g mask="url(#mask4_674_11512)">
<path d="M49.915 122.698H18.6162V128.571H49.915V122.698Z" fill="#FFCF74"/>
<path d="M49.915 111.023H18.6162V116.896H49.915V111.023Z" fill="#FFCF74"/>
</g>
<path opacity="0.1" d="M37.9518 115.966C39.8028 121.593 39.9719 127.185 38.7537 131.702H45.7596L35.8239 107.202H33.4502C35.2979 109.674 36.8578 112.641 37.9518 115.966Z" fill="#0046A0"/>
<g opacity="0.3">
<path d="M32.2758 112.114C31.6315 113.809 30.9868 115.504 30.3425 117.199C29.3139 119.904 28.2858 122.609 27.2572 125.314C27.0194 125.939 26.7816 126.564 26.5442 127.19C26.3308 127.75 27.231 127.993 27.4425 127.437C28.0868 125.742 28.7315 124.047 29.3758 122.352C30.4044 119.647 31.4326 116.943 32.4611 114.238C32.6989 113.612 32.9367 112.987 33.1745 112.362C33.3875 111.801 32.4874 111.558 32.2758 112.114Z" fill="white"/>
</g>
<path d="M113.114 67.6604H110.402V64.9482H109.436V67.6604H106.725V68.6257H109.436V71.3375H110.402V68.6257H113.114V67.6604Z" fill="#CAD2F9"/>
<path d="M129.636 95.0085H127.26V92.6323H126.414V95.0085H124.038V95.8543H126.414V98.2301H127.26V95.8543H129.636V95.0085Z" fill="#CAD2F9"/>
<path d="M131.316 75.3093H129.959V73.9526H129.476V75.3093H128.12V75.7921H129.476V77.1487H129.959V75.7921H131.316V75.3093Z" fill="#CAD2F9"/>
<path d="M75.0984 7.73408H73.7418V6.37744H73.259V7.73408H71.9023V8.21688H73.259V9.57316H73.7418V8.21688H75.0984V7.73408Z" fill="#CAD2F9"/>
<path d="M85.9248 2.7122H83.2126V0H82.247V2.7122H79.5352V3.67743H82.247V6.38928H83.2126V3.67743H85.9248V2.7122Z" fill="#CAD2F9"/>
<path d="M17.0236 62.2118H14.6474V59.8359H13.802V62.2118H11.4258V63.0576H13.802V65.4334H14.6474V63.0576H17.0236V62.2118Z" fill="#CAD2F9"/>
<path d="M7.55057 41.2972H6.19393V39.9409H5.71078V41.2972H4.35449V41.78H5.71078V43.1366H6.19393V41.78H7.55057V41.2972Z" fill="#CAD2F9"/>
<path d="M5.95193 98.5882H4.59529V97.2319H4.1125V98.5882H2.75586V99.071H4.1125V100.428H4.59529V99.071H5.95193V98.5882Z" fill="#CAD2F9"/>
<path d="M34.0148 13.1701H31.6386V10.7939H30.7928V13.1701H28.417V14.0159H30.7928V16.3918H31.6386V14.0159H34.0148V13.1701Z" fill="#CAD2F9"/>
<path d="M60.9379 10.905C60.9379 11.3198 60.6015 11.6562 60.1867 11.6562C59.7719 11.6562 59.4355 11.3198 59.4355 10.905C59.4355 10.4902 59.7719 10.1538 60.1867 10.1538C60.6019 10.1542 60.9379 10.4902 60.9379 10.905Z" fill="#E2E6FF"/>
<path d="M128.119 66.2081C128.119 66.9938 127.483 67.6306 126.697 67.6306C125.911 67.6306 125.274 66.9938 125.274 66.2081C125.274 65.4224 125.911 64.7856 126.697 64.7856C127.483 64.786 128.119 65.4228 128.119 66.2081Z" fill="#E2E6FF"/>
<path d="M1.80605 60.904C1.80605 61.3188 1.46968 61.6552 1.05488 61.6552C0.640084 61.6552 0.303711 61.3188 0.303711 60.904C0.303711 60.4892 0.640084 60.1528 1.05488 60.1528C1.47004 60.1528 1.80605 60.4892 1.80605 60.904Z" fill="#E2E6FF"/>
<path d="M45.5442 4.15539C45.5442 4.94073 44.9074 5.57786 44.1217 5.57786C43.336 5.57786 42.6992 4.94109 42.6992 4.15539C42.6992 3.36968 43.336 2.73291 44.1217 2.73291C44.9074 2.73291 45.5442 3.36968 45.5442 4.15539Z" fill="#E2E6FF"/>
<path d="M3.50625 23.6545C3.50625 24.0693 3.16988 24.4057 2.75508 24.4057C2.34028 24.4057 2.00391 24.0693 2.00391 23.6545C2.00391 23.2397 2.34028 22.9033 2.75508 22.9033C3.16988 22.9033 3.50625 23.2397 3.50625 23.6545Z" fill="#E2E6FF"/>
<path d="M7.37425 121.178C7.37425 121.964 6.73748 122.6 5.95177 122.6C5.16643 122.6 4.5293 121.964 4.5293 121.178C4.5293 120.392 5.16607 119.755 5.95177 119.755C6.73748 119.755 7.37425 120.392 7.37425 121.178Z" fill="#E2E6FF"/>
<path d="M109.195 81.1476C109.195 81.5624 108.858 81.8988 108.444 81.8988C108.029 81.8988 107.692 81.5624 107.692 81.1476C107.692 80.7329 108.029 80.3965 108.444 80.3965C108.858 80.3965 109.195 80.7329 109.195 81.1476Z" fill="#E2E6FF"/>
<path d="M110.671 2.73262C110.671 3.14742 110.335 3.48379 109.92 3.48379C109.505 3.48379 109.169 3.14742 109.169 2.73262C109.169 2.31782 109.505 1.98145 109.92 1.98145C110.335 1.98145 110.671 2.31782 110.671 2.73262Z" fill="#E2E6FF"/>
<path d="M11.801 76.5177C11.801 77.3034 11.1642 77.9402 10.3785 77.9402C9.59282 77.9402 8.95605 77.3034 8.95605 76.5177C8.95605 75.732 9.59282 75.0952 10.3785 75.0952C11.1642 75.0952 11.801 75.732 11.801 76.5177Z" fill="#E2E6FF"/>
<path d="M50.9585 16.7572C50.7923 17.0123 50.7898 17.1598 50.7987 17.1857C50.8128 17.2019 50.9376 17.281 51.2423 17.281H66.4726C66.777 17.281 66.9018 17.2019 66.9187 17.1806C66.9245 17.1601 66.9223 17.0119 66.7561 16.7572L59.3379 5.39178C59.189 5.16369 59.0095 5.02734 58.8577 5.02734C58.7058 5.02734 58.5263 5.16369 58.3774 5.39214L50.9585 16.7572Z" fill="#FFCF74"/>
<path d="M66.4725 18.8919H51.2422C50.3835 18.8919 49.7054 18.5487 49.3812 17.9504C49.0571 17.3522 49.1406 16.5967 49.61 15.8775L57.0286 4.51209C57.4829 3.81632 58.1496 3.41699 58.8576 3.41699C59.5656 3.41699 60.2326 3.81596 60.6866 4.51173L68.1051 15.8775C68.5742 16.5967 68.6577 17.3522 68.3339 17.9504C68.0094 18.5487 67.3313 18.8919 66.4725 18.8919ZM50.9588 16.7578C50.7925 17.0129 50.79 17.1604 50.799 17.1863C50.8131 17.2025 50.9379 17.2816 51.2426 17.2816H66.4729C66.7772 17.2816 66.9021 17.2025 66.919 17.1813C66.9247 17.1608 66.9226 17.0126 66.7564 16.7578L59.3382 5.39242C59.1893 5.16433 59.0097 5.02798 58.8579 5.02798C58.7061 5.02798 58.5266 5.16433 58.3777 5.39278L50.9588 16.7578Z" fill="#F9AB43"/>
<path d="M58.4268 15.5656C58.3135 15.4522 58.257 15.3123 58.257 15.1457C58.257 14.9791 58.3135 14.8392 58.4268 14.7259C58.5402 14.6126 58.6801 14.5557 58.8467 14.5557C59.0132 14.5557 59.155 14.6126 59.2715 14.7259C59.3877 14.8392 59.4464 14.9791 59.4464 15.1457C59.4464 15.3123 59.3877 15.4522 59.2715 15.5656C59.1546 15.6789 59.0132 15.7354 58.8467 15.7354C58.6801 15.7354 58.5405 15.6785 58.4268 15.5656ZM58.0771 8.59814H59.6363L59.3467 13.5862H58.3667L58.0771 8.59814Z" fill="white"/>
</svg>
