<svg width="40" height="14" viewBox="0 0 40 14" fill="none" xmlns="http://www.w3.org/2000/svg">
<path d="M37.0367 13.2799L36.6617 11.4049H32.4717L31.805 13.2665L28.4467 13.2732C30.6056 8.08543 32.2078 4.24265 33.2533 1.74487C33.5267 1.09154 34.0117 0.758204 34.7267 0.763204C35.2733 0.767648 36.1656 0.768203 37.4033 0.76487L40 13.2749L37.0367 13.2799ZM33.4133 8.83654H36.115L35.1067 4.13654L33.4133 8.83654ZM11.77 0.761537L15.1467 0.76487L9.92667 13.2815L6.50833 13.2782C5.64875 9.97207 4.79986 6.66316 3.96167 3.35154C3.795 2.69154 3.465 2.22987 2.83 2.01154C2.26222 1.81709 1.31889 1.51654 0 1.10987V0.76487H5.395C6.32833 0.76487 6.87333 1.21654 7.04833 2.1432C7.225 3.07209 7.66944 5.43543 8.38167 9.2332L11.77 0.761537ZM19.7867 0.76487L17.1183 13.2799L13.9033 13.2749L16.5667 0.761537L19.7867 0.76487ZM26.3033 0.533203C27.265 0.533203 28.4767 0.833203 29.1733 1.10987L28.61 3.7032C27.98 3.44987 26.9433 3.1082 26.0717 3.11987C24.805 3.14154 24.0217 3.6732 24.0217 4.1832C24.0217 5.0132 25.3817 5.43154 26.7817 6.3382C28.3783 7.37154 28.59 8.29987 28.57 9.30987C28.5483 11.4015 26.7817 13.4665 23.055 13.4665C21.355 13.4415 20.7417 13.2999 19.355 12.8065L19.9417 10.0999C21.3533 10.6899 21.9517 10.8782 23.1583 10.8782C24.2633 10.8782 25.2117 10.4315 25.22 9.6532C25.2267 9.09987 24.8867 8.82487 23.6467 8.14154C22.4067 7.4582 20.6667 6.50987 20.69 4.60487C20.7183 2.1682 23.0267 0.533203 26.3033 0.533203Z" fill="#13375B"/>
</svg>
